<svg width="1000" height="1000" viewBox="0 0 1000 1000" xmlns="http://www.w3.org/2000/svg"><defs/><path fill="#ffae11" transform="matrix(0.38910596690713434 0 0 0.38910596690713434 2.8712019555364687 -4.882011341805228)" d="M 695.02012808217 1422.89373944695 L 725.52012808217 1407.99373944695 L 725.52012808217 1292.79373944695 L 624.02012808217 1353.39373944695 L 522.52012808217 1292.79373944695 L 522.52012808217 1407.99373944695 L 624.02012808217 1457.69373944695 L 665.12012808217 1437.59373944695 L 665.12012808217 1405.29373944695 L 695.02012808217 1387.49373944695 Z"/><path fill="#ffae11" transform="matrix(0.38910596690713434 0 0 0.38910596690713434 2.8712019555364687 -4.882011341805228)" d="M 761.52012808217 1249.79373944695 L 623.52012808217 1170.09373944695 L 486.12012808217 1249.89373944695 L 624.42012808217 1329.79373944695 L 750.92012808217 1256.29373944695 L 750.92012808217 1299.79373944695 C 748.32012808217 1301.59373944695 746.72012808217 1304.49373944695 746.72012808217 1307.79373944695 C 746.72012808217 1311.29373944695 748.52012808217 1314.29373944695 751.22012808217 1315.99373944695 L 742.32012808217 1346.59373944695 L 773.12012808217 1346.59373944695 L 762.52012808217 1315.49373944695 C 764.82012808217 1313.69373944695 766.32012808217 1310.89373944695 766.32012808217 1307.79373944695 C 766.32012808217 1304.49373944695 764.62012808217 1301.49373944695 762.12012808217 1299.69373944695 L 762.12012808217 1249.69373944695 L 761.52012808217 1249.69373944695 Z"/><path fill="#ffae11" transform="matrix(0.38910596690713434 0 0 0.38910596690713434 2.8712019555364687 -4.882011341805228)" d="M 858.62012808217 1327.09373944695 C 855.52012808217 1329.29373944695 852.22012808217 1332.19373944695 849.32012808217 1335.79373944695 C 844.82012808217 1341.09373944695 841.22012808217 1347.29373944695 838.12012808217 1353.89373944695 C 840.12012808217 1345.49373944695 841.52012808217 1336.89373944695 842.32012808217 1328.29373944695 C 842.52012808217 1325.89373944695 842.72012808217 1323.49373944695 842.82012808217 1321.09373944695 C 849.02012808217 1319.79373944695 855.12012808217 1315.49373944695 859.82012808217 1307.69373944695 C 862.22012808217 1303.59373944695 864.22012808217 1298.69373944695 865.22012808217 1293.49373944695 C 865.52012808217 1292.19373944695 865.72012808217 1290.89373944695 865.92012808217 1289.49373944695 L 866.22012808217 1287.49373944695 L 866.32012808217 1285.49373944695 C 866.52012808217 1282.79373944695 866.52012808217 1279.99373944695 866.32012808217 1277.19373944695 C 863.22012808217 1278.49373944695 860.22012808217 1280.59373944695 857.52012808217 1283.39373944695 C 856.22012808217 1284.79373944695 854.92012808217 1286.39373944695 853.72012808217 1288.09373944695 C 852.52012808217 1289.79373944695 851.32012808217 1291.79373944695 850.22012808217 1293.79373944695 C 849.12012808217 1295.89373944695 848.22012808217 1297.99373944695 847.32012808217 1300.19373944695 C 846.42012808217 1302.39373944695 845.52012808217 1304.69373944695 844.92012808217 1306.99373944695 C 844.52012808217 1308.19373944695 844.32012808217 1309.29373944695 843.92012808217 1310.49373944695 C 843.62012808217 1311.59373944695 843.32012808217 1312.59373944695 843.12012808217 1313.69373944695 C 843.22012808217 1308.19373944695 843.12012808217 1302.59373944695 842.72012808217 1297.09373944695 C 842.42012808217 1291.59373944695 841.82012808217 1286.09373944695 840.92012808217 1280.69373944695 C 843.62012808217 1279.49373944695 846.12012808217 1277.69373944695 848.42012808217 1275.19373944695 C 850.92012808217 1272.39373944695 853.32012808217 1268.69373944695 854.72012808217 1264.09373944695 C 855.52012808217 1261.79373944695 856.12012808217 1259.39373944695 856.52012808217 1256.89373944695 C 856.92012808217 1254.39373944695 857.02012808217 1251.79373944695 857.02012808217 1249.09373944695 C 857.02012808217 1247.79373944695 857.02012808217 1246.39373944695 856.92012808217 1245.09373944695 C 856.82012808217 1243.79373944695 856.62012808217 1242.39373944695 856.42012808217 1240.99373944695 C 856.22012808217 1239.59373944695 856.02012808217 1238.29373944695 855.72012808217 1236.89373944695 C 855.42012808217 1235.49373944695 855.12012808217 1234.19373944695 854.72012808217 1232.79373944695 C 853.32012808217 1233.69373944695 852.02012808217 1234.89373944695 850.82012808217 1236.19373944695 C 849.62012808217 1237.49373944695 848.42012808217 1238.99373944695 847.42012808217 1240.69373944695 C 846.42012808217 1242.39373944695 845.42012808217 1244.19373944695 844.62012808217 1246.09373944695 C 844.22012808217 1247.09373944695 843.82012808217 1248.09373944695 843.52012808217 1249.09373944695 C 843.12012808217 1250.19373944695 842.82012808217 1251.29373944695 842.42012808217 1252.39373944695 C 841.72012808217 1254.69373944695 841.22012808217 1256.99373944695 840.82012808217 1259.29373944695 C 840.42012808217 1261.59373944695 840.02012808217 1263.99373944695 839.82012808217 1266.49373944695 C 839.72012808217 1267.69373944695 839.62012808217 1268.89373944695 839.62012808217 1270.09373944695 C 839.62012808217 1271.19373944695 839.52012808217 1272.29373944695 839.52012808217 1273.39373944695 C 839.02012808217 1270.99373944695 838.52012808217 1268.59373944695 838.02012808217 1266.19373944695 C 836.12012808217 1257.79373944695 833.62012808217 1249.59373944695 830.62012808217 1241.59373944695 C 833.02012808217 1239.89373944695 835.12012808217 1237.59373944695 836.82012808217 1234.59373944695 C 837.82012808217 1232.89373944695 838.62012808217 1231.09373944695 839.32012808217 1229.09373944695 C 839.92012808217 1227.09373944695 840.42012808217 1224.89373944695 840.72012808217 1222.49373944695 C 841.42012808217 1217.69373944695 840.92012808217 1212.59373944695 839.92012808217 1207.29373944695 C 839.32012808217 1204.69373944695 838.52012808217 1202.09373944695 837.62012808217 1199.49373944695 C 837.12012808217 1198.19373944695 836.72012808217 1196.89373944695 836.12012808217 1195.59373944695 C 835.52012808217 1194.29373944695 834.92012808217 1193.09373944695 834.22012808217 1191.89373944695 C 831.92012808217 1194.29373944695 830.12012808217 1197.39373944695 828.82012808217 1201.09373944695 C 827.42012808217 1204.79373944695 826.62012808217 1208.99373944695 826.42012808217 1213.59373944695 C 825.92012808217 1220.59373944695 826.62012808217 1227.69373944695 828.02012808217 1234.89373944695 C 824.22012808217 1225.79373944695 819.72012808217 1217.09373944695 814.62012808217 1208.69373944695 C 813.92012808217 1207.59373944695 813.32012808217 1206.59373944695 812.62012808217 1205.49373944695 C 814.62012808217 1203.29373944695 816.22012808217 1200.59373944695 817.22012808217 1197.39373944695 C 818.42012808217 1193.79373944695 818.82012808217 1189.59373944695 818.42012808217 1184.69373944695 C 817.42012808217 1175.19373944695 813.02012808217 1164.79373944695 805.72012808217 1156.19373944695 C 803.92012808217 1159.09373944695 802.82012808217 1162.49373944695 802.32012808217 1166.29373944695 C 802.02012808217 1168.19373944695 802.02012808217 1170.19373944695 802.02012808217 1172.39373944695 C 802.02012808217 1174.49373944695 802.22012808217 1176.79373944695 802.52012808217 1179.09373944695 C 802.72012808217 1180.29373944695 802.92012808217 1181.39373944695 803.12012808217 1182.59373944695 C 803.32012808217 1183.69373944695 803.62012808217 1184.89373944695 803.82012808217 1186.09373944695 C 804.42012808217 1188.39373944695 805.12012808217 1190.69373944695 805.92012808217 1192.99373944695 C 806.62012808217 1195.19373944695 807.42012808217 1197.29373944695 808.32012808217 1199.39373944695 C 804.52012808217 1193.89373944695 800.42012808217 1188.69373944695 796.02012808217 1183.59373944695 C 793.22012808217 1180.29373944695 790.22012808217 1177.09373944695 787.22012808217 1173.99373944695 C 787.82012808217 1172.89373944695 788.42012808217 1171.69373944695 788.92012808217 1170.39373944695 C 789.52012808217 1168.79373944695 789.92012808217 1166.99373944695 790.12012808217 1165.09373944695 C 790.32012808217 1163.19373944695 790.32012808217 1161.19373944695 790.12012808217 1159.09373944695 C 790.02012808217 1157.99373944695 789.82012808217 1156.89373944695 789.62012808217 1155.79373944695 C 789.42012808217 1154.69373944695 789.12012808217 1153.59373944695 788.72012808217 1152.39373944695 C 788.02012808217 1150.09373944695 787.02012808217 1147.79373944695 785.92012808217 1145.49373944695 C 784.82012808217 1143.19373944695 783.32012808217 1141.09373944695 781.82012808217 1138.89373944695 C 781.02012808217 1137.79373944695 780.22012808217 1136.69373944695 779.42012808217 1135.69373944695 C 778.52012808217 1134.69373944695 777.62012808217 1133.69373944695 776.62012808217 1132.69373944695 C 775.62012808217 1131.69373944695 774.62012808217 1130.79373944695 773.62012808217 1129.79373944695 C 772.62012808217 1128.79373944695 771.52012808217 1127.89373944695 770.42012808217 1127.09373944695 C 769.82012808217 1128.69373944695 769.52012808217 1130.39373944695 769.32012808217 1132.09373944695 C 769.12012808217 1133.89373944695 769.02012808217 1135.79373944695 769.22012808217 1137.69373944695 C 769.32012808217 1139.59373944695 769.62012808217 1141.69373944695 770.12012808217 1143.69373944695 C 770.32012808217 1144.69373944695 770.62012808217 1145.79373944695 771.02012808217 1146.79373944695 C 771.32012808217 1147.89373944695 771.72012808217 1148.99373944695 772.12012808217 1150.09373944695 C 772.92012808217 1152.29373944695 773.82012808217 1154.49373944695 774.92012808217 1156.59373944695 C 775.92012808217 1158.69373944695 777.02012808217 1160.89373944695 778.32012808217 1162.99373944695 C 778.92012808217 1163.99373944695 779.62012808217 1164.99373944695 780.32012808217 1166.09373944695 C 780.92012808217 1166.99373944695 781.42012808217 1167.89373944695 782.02012808217 1168.69373944695 C 779.42012808217 1166.29373944695 776.72012808217 1163.89373944695 774.02012808217 1161.59373944695 C 768.32012808217 1156.79373944695 762.32012808217 1152.39373944695 756.12012808217 1148.29373944695 C 757.02012808217 1145.49373944695 757.42012808217 1142.39373944695 757.02012808217 1138.99373944695 C 756.82012808217 1137.09373944695 756.42012808217 1135.09373944695 755.82012808217 1133.09373944695 C 755.12012808217 1131.09373944695 754.22012808217 1128.99373944695 753.02012808217 1126.89373944695 C 750.72012808217 1122.59373944695 747.42012808217 1118.79373944695 743.52012808217 1115.09373944695 C 739.52012808217 1111.69373944695 734.92012808217 1108.39373944695 729.92012808217 1105.99373944695 C 729.42012808217 1109.29373944695 729.82012808217 1112.89373944695 730.92012808217 1116.59373944695 C 732.02012808217 1120.39373944695 733.72012808217 1124.29373944695 736.32012808217 1128.19373944695 C 739.92012808217 1134.19373944695 744.72012808217 1139.49373944695 750.02012808217 1144.49373944695 C 749.52012808217 1144.19373944695 749.02012808217 1143.89373944695 748.52012808217 1143.59373944695 L 741.72012808217 1139.69373944695 L 734.72012808217 1136.09373944695 C 733.62012808217 1135.49373944695 732.42012808217 1134.99373944695 731.22012808217 1134.39373944695 L 727.62012808217 1132.79373944695 C 726.42012808217 1132.29373944695 725.22012808217 1131.69373944695 724.02012808217 1131.19373944695 L 720.42012808217 1129.79373944695 L 720.02012808217 1130.89373944695 C 720.52012808217 1127.59373944695 720.32012808217 1124.09373944695 719.22012808217 1120.39373944695 C 718.02012808217 1116.79373944695 715.92012808217 1113.09373944695 712.72012808217 1109.39373944695 C 706.32012808217 1102.19373944695 696.62012808217 1096.39373944695 685.72012808217 1093.79373944695 C 686.22012808217 1100.59373944695 690.02012808217 1107.39373944695 696.52012808217 1114.19373944695 C 697.32012808217 1114.99373944695 698.22012808217 1115.79373944695 699.02012808217 1116.59373944695 C 699.92012808217 1117.39373944695 700.72012808217 1118.19373944695 701.72012808217 1118.99373944695 C 703.52012808217 1120.59373944695 705.42012808217 1121.99373944695 707.42012808217 1123.29373944695 C 711.32012808217 1126.19373944695 715.62012808217 1128.59373944695 720.02012808217 1130.89373944695 L 720.02012808217 1130.89373944695 C 715.32012808217 1129.39373944695 710.42012808217 1128.89373944695 705.72012808217 1128.89373944695 C 703.32012808217 1128.99373944695 701.02012808217 1129.29373944695 698.82012808217 1129.69373944695 C 697.72012808217 1129.89373944695 696.62012808217 1130.09373944695 695.52012808217 1130.39373944695 C 694.42012808217 1130.69373944695 693.42012808217 1131.09373944695 692.32012808217 1131.49373944695 C 684.12012808217 1134.69373944695 679.12012808217 1140.39373944695 676.82012808217 1146.49373944695 C 685.32012808217 1146.79373944695 693.82012808217 1146.19373944695 701.92012808217 1143.29373944695 C 705.92012808217 1141.99373944695 709.52012808217 1140.19373944695 712.52012808217 1138.09373944695 C 715.52012808217 1136.09373944695 718.02012808217 1133.59373944695 719.92012808217 1130.79373944695 L 719.52012808217 1131.89373944695 L 723.12012808217 1133.29373944695 C 724.32012808217 1133.79373944695 725.52012808217 1134.29373944695 726.62012808217 1134.89373944695 L 730.12012808217 1136.49373944695 C 731.32012808217 1136.99373944695 732.52012808217 1137.49373944695 733.62012808217 1138.19373944695 L 740.52012808217 1141.69373944695 L 747.22012808217 1145.49373944695 C 747.62012808217 1145.69373944695 748.02012808217 1145.99373944695 748.42012808217 1146.19373944695 C 741.72012808217 1143.89373944695 734.72012808217 1143.19373944695 728.42012808217 1144.19373944695 C 724.02012808217 1144.99373944695 720.32012808217 1146.39373944695 717.32012808217 1148.39373944695 C 714.22012808217 1150.39373944695 711.82012808217 1152.89373944695 710.12012808217 1155.79373944695 C 714.22012808217 1156.79373944695 718.42012808217 1157.79373944695 722.62012808217 1157.99373944695 C 726.82012808217 1158.49373944695 731.12012808217 1158.29373944695 735.32012808217 1157.89373944695 C 737.42012808217 1157.69373944695 739.42012808217 1157.29373944695 741.42012808217 1156.79373944695 C 743.32012808217 1156.29373944695 745.12012808217 1155.79373944695 746.82012808217 1155.09373944695 C 749.82012808217 1153.89373944695 752.42012808217 1152.19373944695 754.62012808217 1150.29373944695 C 760.72012808217 1154.39373944695 766.62012808217 1158.79373944695 772.32012808217 1163.49373944695 C 775.12012808217 1165.79373944695 777.82012808217 1168.19373944695 780.42012808217 1170.69373944695 C 779.42012808217 1170.09373944695 778.52012808217 1169.49373944695 777.52012808217 1168.99373944695 C 776.42012808217 1168.49373944695 775.32012808217 1167.99373944695 774.22012808217 1167.49373944695 C 772.02012808217 1166.59373944695 769.82012808217 1165.79373944695 767.62012808217 1165.29373944695 C 765.42012808217 1164.79373944695 763.12012808217 1164.49373944695 761.02012808217 1164.39373944695 C 759.92012808217 1164.29373944695 758.92012808217 1164.29373944695 757.82012808217 1164.39373944695 C 756.72012808217 1164.49373944695 755.72012808217 1164.59373944695 754.72012808217 1164.69373944695 C 752.72012808217 1164.99373944695 750.92012808217 1165.49373944695 749.22012808217 1166.19373944695 C 747.52012808217 1166.79373944695 746.02012808217 1167.59373944695 744.52012808217 1168.59373944695 C 743.12012808217 1169.59373944695 741.82012808217 1170.69373944695 740.62012808217 1171.89373944695 C 741.62012808217 1172.39373944695 742.52012808217 1172.79373944695 743.52012808217 1173.29373944695 C 744.52012808217 1173.79373944695 745.42012808217 1174.19373944695 746.42012808217 1174.59373944695 C 747.42012808217 1174.99373944695 748.42012808217 1175.39373944695 749.42012808217 1175.69373944695 C 750.42012808217 1176.09373944695 751.42012808217 1176.39373944695 752.42012808217 1176.79373944695 C 754.42012808217 1177.49373944695 756.52012808217 1177.89373944695 758.62012808217 1178.39373944695 C 760.72012808217 1178.89373944695 762.72012808217 1179.19373944695 764.92012808217 1179.39373944695 C 766.02012808217 1179.49373944695 767.02012808217 1179.49373944695 768.12012808217 1179.59373944695 C 769.12012808217 1179.59373944695 770.12012808217 1179.69373944695 771.12012808217 1179.59373944695 C 773.12012808217 1179.49373944695 775.02012808217 1179.29373944695 776.82012808217 1178.99373944695 C 778.62012808217 1178.69373944695 780.42012808217 1178.19373944695 782.02012808217 1177.49373944695 C 783.22012808217 1176.99373944695 784.42012808217 1176.49373944695 785.52012808217 1175.89373944695 C 788.52012808217 1178.99373944695 791.42012808217 1182.09373944695 794.22012808217 1185.39373944695 C 798.52012808217 1190.39373944695 802.62012808217 1195.69373944695 806.42012808217 1201.09373944695 C 804.72012808217 1199.49373944695 802.92012808217 1198.09373944695 801.12012808217 1196.79373944695 C 799.12012808217 1195.49373944695 797.12012808217 1194.29373944695 795.12012808217 1193.39373944695 C 794.12012808217 1192.89373944695 793.12012808217 1192.39373944695 792.02012808217 1192.09373944695 C 790.92012808217 1191.69373944695 789.92012808217 1191.39373944695 788.82012808217 1191.09373944695 C 786.72012808217 1190.59373944695 784.62012808217 1190.19373944695 782.72012808217 1190.09373944695 C 780.72012808217 1189.99373944695 778.82012808217 1190.09373944695 777.02012808217 1190.39373944695 C 773.42012808217 1190.99373944695 770.22012808217 1192.29373944695 767.52012808217 1194.09373944695 C 774.22012808217 1199.39373944695 781.52012808217 1203.89373944695 789.72012808217 1206.29373944695 C 793.72012808217 1207.59373944695 797.72012808217 1208.19373944695 801.42012808217 1208.29373944695 C 804.62012808217 1208.39373944695 807.72012808217 1207.99373944695 810.62012808217 1207.09373944695 C 811.32012808217 1208.09373944695 811.92012808217 1209.19373944695 812.62012808217 1210.19373944695 C 817.62012808217 1218.39373944695 822.02012808217 1226.99373944695 825.82012808217 1235.79373944695 C 821.72012808217 1229.99373944695 816.52012808217 1225.39373944695 810.82012808217 1222.49373944695 C 806.82012808217 1220.59373944695 803.02012808217 1219.59373944695 799.42012808217 1219.39373944695 C 795.72012808217 1219.19373944695 792.32012808217 1219.89373944695 789.22012808217 1221.09373944695 C 789.92012808217 1221.89373944695 790.62012808217 1222.69373944695 791.32012808217 1223.49373944695 C 792.02012808217 1224.29373944695 792.72012808217 1225.09373944695 793.42012808217 1225.89373944695 C 794.82012808217 1227.49373944695 796.42012808217 1228.89373944695 798.02012808217 1230.29373944695 C 801.12012808217 1233.09373944695 804.72012808217 1235.59373944695 808.32012808217 1237.69373944695 C 810.12012808217 1238.69373944695 812.02012808217 1239.59373944695 813.92012808217 1240.29373944695 C 815.72012808217 1240.99373944695 817.52012808217 1241.59373944695 819.32012808217 1242.09373944695 C 822.42012808217 1242.89373944695 825.62012808217 1243.09373944695 828.52012808217 1242.79373944695 C 831.52012808217 1250.69373944695 834.02012808217 1258.89373944695 835.82012808217 1267.09373944695 C 836.32012808217 1269.39373944695 836.82012808217 1271.79373944695 837.32012808217 1274.19373944695 C 836.92012808217 1273.19373944695 836.52012808217 1272.29373944695 836.02012808217 1271.29373944695 C 835.42012808217 1270.19373944695 834.82012808217 1269.19373944695 834.22012808217 1268.19373944695 C 832.92012808217 1266.19373944695 831.72012808217 1264.29373944695 830.22012808217 1262.59373944695 C 828.72012808217 1260.89373944695 827.12012808217 1259.29373944695 825.42012808217 1257.99373944695 C 824.52012808217 1257.29373944695 823.72012808217 1256.69373944695 822.82012808217 1256.09373944695 C 821.92012808217 1255.49373944695 821.02012808217 1254.99373944695 820.12012808217 1254.59373944695 C 818.32012808217 1253.69373944695 816.52012808217 1252.99373944695 814.82012808217 1252.59373944695 C 813.12012808217 1252.09373944695 811.32012808217 1251.89373944695 809.62012808217 1251.79373944695 C 807.92012808217 1251.69373944695 806.22012808217 1251.89373944695 804.52012808217 1252.19373944695 C 805.02012808217 1253.09373944695 805.52012808217 1254.09373944695 806.02012808217 1254.99373944695 C 806.52012808217 1255.89373944695 807.02012808217 1256.79373944695 807.62012808217 1257.69373944695 C 808.22012808217 1258.59373944695 808.82012808217 1259.49373944695 809.42012808217 1260.39373944695 C 810.02012808217 1261.29373944695 810.62012808217 1262.19373944695 811.22012808217 1262.99373944695 C 812.42012808217 1264.69373944695 813.82012808217 1266.29373944695 815.32012808217 1267.89373944695 C 816.72012808217 1269.49373944695 818.22012808217 1270.99373944695 819.82012808217 1272.39373944695 C 823.12012808217 1275.19373944695 826.22012808217 1277.39373944695 829.62012808217 1278.99373944695 C 832.52012808217 1280.39373944695 835.62012808217 1281.29373944695 838.52012808217 1281.59373944695 C 839.32012808217 1286.99373944695 839.92012808217 1292.39373944695 840.22012808217 1297.79373944695 C 840.52012808217 1303.29373944695 840.72012808217 1308.69373944695 840.62012808217 1314.19373944695 C 840.42012808217 1313.09373944695 840.22012808217 1312.09373944695 839.92012808217 1311.09373944695 C 839.62012808217 1309.89373944695 839.22012808217 1308.79373944695 838.82012808217 1307.69373944695 C 838.02012808217 1305.49373944695 837.12012808217 1303.29373944695 836.02012808217 1301.39373944695 C 834.92012808217 1299.39373944695 833.62012808217 1297.59373944695 832.22012808217 1295.89373944695 C 830.82012808217 1294.19373944695 829.42012808217 1292.69373944695 827.82012808217 1291.49373944695 C 826.22012808217 1290.29373944695 824.62012808217 1289.19373944695 823.02012808217 1288.39373944695 C 819.72012808217 1286.79373944695 816.42012808217 1285.89373944695 813.12012808217 1285.79373944695 C 813.62012808217 1287.89373944695 814.22012808217 1289.89373944695 815.02012808217 1291.89373944695 L 815.62012808217 1293.39373944695 L 816.12012808217 1294.89373944695 C 816.52012808217 1295.89373944695 816.92012808217 1296.89373944695 817.32012808217 1297.79373944695 C 819.22012808217 1301.69373944695 821.22012808217 1305.39373944695 823.82012808217 1308.79373944695 C 828.52012808217 1315.19373944695 834.22012808217 1319.69373944695 840.22012808217 1321.69373944695 C 840.12012808217 1324.09373944695 839.92012808217 1326.49373944695 839.72012808217 1328.79373944695 C 838.92012808217 1337.29373944695 837.52012808217 1345.69373944695 835.62012808217 1353.89373944695 C 835.72012808217 1346.79373944695 834.22012808217 1339.89373944695 831.32012808217 1334.19373944695 C 829.22012808217 1330.29373944695 826.82012808217 1327.19373944695 823.92012808217 1324.99373944695 C 821.02012808217 1322.69373944695 817.92012808217 1321.19373944695 814.72012808217 1320.39373944695 C 814.82012808217 1322.49373944695 815.12012808217 1324.69373944695 815.32012808217 1326.79373944695 C 815.52012808217 1328.89373944695 815.92012808217 1330.99373944695 816.52012808217 1333.09373944695 C 817.32012808217 1337.19373944695 818.82012808217 1341.29373944695 820.52012808217 1345.09373944695 C 821.42012808217 1346.99373944695 822.42012808217 1348.79373944695 823.52012808217 1350.49373944695 C 824.52012808217 1352.19373944695 825.62012808217 1353.69373944695 826.82012808217 1355.09373944695 C 828.92012808217 1357.59373944695 831.32012808217 1359.59373944695 833.82012808217 1361.09373944695 C 830.92012808217 1371.59373944695 827.22012808217 1381.79373944695 822.72012808217 1391.69373944695 C 824.22012808217 1384.79373944695 824.22012808217 1377.79373944695 822.42012808217 1371.59373944695 C 821.82012808217 1369.49373944695 821.12012808217 1367.49373944695 820.22012808217 1365.79373944695 C 819.32012808217 1363.99373944695 818.22012808217 1362.39373944695 817.12012808217 1360.99373944695 C 814.82012808217 1358.19373944695 812.12012808217 1356.09373944695 809.12012808217 1354.59373944695 C 807.82012808217 1362.99373944695 807.72012808217 1371.69373944695 809.72012808217 1379.99373944695 C 811.52012808217 1387.79373944695 814.82012808217 1394.09373944695 819.52012808217 1398.39373944695 C 814.62012808217 1408.19373944695 808.82012808217 1417.49373944695 802.32012808217 1426.29373944695 C 805.32012808217 1419.79373944695 806.72012808217 1412.89373944695 806.22012808217 1406.39373944695 C 806.02012808217 1402.09373944695 804.72012808217 1398.19373944695 803.12012808217 1394.89373944695 C 802.32012808217 1393.29373944695 801.32012808217 1391.79373944695 800.22012808217 1390.49373944695 C 799.12012808217 1389.19373944695 797.92012808217 1387.99373944695 796.52012808217 1386.99373944695 C 793.52012808217 1394.99373944695 791.72012808217 1403.49373944695 792.02012808217 1411.99373944695 C 792.02012808217 1416.19373944695 792.72012808217 1420.19373944695 793.82012808217 1423.69373944695 C 794.82012808217 1426.79373944695 796.12012808217 1429.59373944695 797.92012808217 1431.99373944695 C 795.72012808217 1434.79373944695 793.42012808217 1437.49373944695 791.12012808217 1440.09373944695 C 786.22012808217 1445.59373944695 781.02012808217 1450.79373944695 775.52012808217 1455.79373944695 C 779.72012808217 1450.09373944695 782.52012808217 1443.59373944695 783.32012808217 1437.19373944695 C 784.42012808217 1428.49373944695 782.12012808217 1421.39373944695 777.72012808217 1416.29373944695 C 773.12012808217 1423.49373944695 769.72012808217 1431.49373944695 768.22012808217 1439.89373944695 C 767.42012808217 1444.09373944695 767.22012808217 1447.99373944695 767.62012808217 1451.69373944695 C 767.92012808217 1454.89373944695 768.72012808217 1457.89373944695 769.92012808217 1460.59373944695 C 761.62012808217 1467.49373944695 752.72012808217 1473.69373944695 743.42012808217 1478.99373944695 C 743.32012808217 1479.09373944695 743.22012808217 1479.09373944695 743.12012808217 1479.19373944695 C 748.42012808217 1474.49373944695 752.52012808217 1468.79373944695 754.62012808217 1462.59373944695 C 756.12012808217 1458.49373944695 756.52012808217 1454.49373944695 756.32012808217 1450.89373944695 C 756.02012808217 1447.29373944695 755.02012808217 1443.89373944695 753.42012808217 1440.99373944695 C 747.52012808217 1447.09373944695 742.62012808217 1454.19373944695 739.32012808217 1461.99373944695 C 737.72012808217 1465.89373944695 736.62012808217 1469.69373944695 736.22012808217 1473.39373944695 C 735.82012808217 1476.59373944695 735.92012808217 1479.69373944695 736.52012808217 1482.59373944695 C 720.52012808217 1490.89373944695 703.32012808217 1496.69373944695 685.52012808217 1499.69373944695 L 685.92012808217 1501.99373944695 C 703.92012808217 1498.89373944695 721.42012808217 1492.99373944695 737.62012808217 1484.59373944695 C 739.62012808217 1486.79373944695 742.22012808217 1488.59373944695 745.32012808217 1489.99373944695 C 747.02012808217 1490.69373944695 749.02012808217 1491.29373944695 751.12012808217 1491.69373944695 C 753.22012808217 1492.09373944695 755.52012808217 1492.39373944695 757.92012808217 1492.29373944695 C 767.62012808217 1492.29373944695 778.22012808217 1488.49373944695 787.52012808217 1482.09373944695 C 784.82012808217 1480.09373944695 781.52012808217 1478.69373944695 777.72012808217 1477.79373944695 C 773.92012808217 1476.89373944695 769.62012808217 1476.69373944695 765.02012808217 1476.89373944695 C 758.12012808217 1477.29373944695 751.12012808217 1478.79373944695 744.22012808217 1480.99373944695 C 744.32012808217 1480.89373944695 744.42012808217 1480.89373944695 744.62012808217 1480.79373944695 C 754.12012808217 1475.39373944695 763.02012808217 1469.09373944695 771.42012808217 1462.19373944695 C 773.82012808217 1463.89373944695 776.72012808217 1465.19373944695 780.02012808217 1465.79373944695 C 783.72012808217 1466.49373944695 788.02012808217 1466.49373944695 792.82012808217 1465.49373944695 C 802.22012808217 1463.49373944695 811.82012808217 1457.59373944695 819.52012808217 1449.49373944695 C 813.42012808217 1446.69373944695 805.42012808217 1446.59373944695 796.42012808217 1449.09373944695 C 794.12012808217 1449.69373944695 791.92012808217 1450.39373944695 789.72012808217 1451.29373944695 C 787.42012808217 1452.09373944695 785.22012808217 1453.09373944695 783.12012808217 1454.19373944695 C 782.02012808217 1454.69373944695 780.92012808217 1455.29373944695 779.92012808217 1455.89373944695 C 778.92012808217 1456.39373944695 778.02012808217 1456.89373944695 777.02012808217 1457.49373944695 C 782.62012808217 1452.49373944695 787.92012808217 1447.19373944695 792.82012808217 1441.59373944695 C 795.22012808217 1438.89373944695 797.52012808217 1436.19373944695 799.72012808217 1433.39373944695 C 802.42012808217 1434.59373944695 805.52012808217 1435.19373944695 808.92012808217 1435.19373944695 C 812.72012808217 1435.19373944695 816.92012808217 1434.19373944695 821.32012808217 1432.29373944695 C 830.12012808217 1428.39373944695 838.32012808217 1420.79373944695 844.22012808217 1411.19373944695 C 842.62012808217 1410.79373944695 840.92012808217 1410.59373944695 839.12012808217 1410.59373944695 C 837.32012808217 1410.59373944695 835.42012808217 1410.79373944695 833.52012808217 1411.09373944695 C 829.72012808217 1411.79373944695 825.72012808217 1413.29373944695 821.52012808217 1415.29373944695 C 815.42012808217 1418.39373944695 809.62012808217 1422.59373944695 804.22012808217 1427.39373944695 C 810.72012808217 1418.49373944695 816.52012808217 1409.09373944695 821.52012808217 1399.29373944695 C 827.72012808217 1400.59373944695 835.02012808217 1399.09373944695 842.42012808217 1393.89373944695 C 850.22012808217 1388.29373944695 856.82012808217 1379.19373944695 860.72012808217 1368.59373944695 C 857.32012808217 1368.49373944695 853.82012808217 1369.19373944695 850.22012808217 1370.69373944695 C 848.42012808217 1371.39373944695 846.62012808217 1372.39373944695 844.82012808217 1373.49373944695 C 843.02012808217 1374.59373944695 841.12012808217 1375.89373944695 839.32012808217 1377.29373944695 C 833.92012808217 1381.59373944695 829.02012808217 1386.89373944695 824.72012808217 1392.79373944695 C 829.32012808217 1382.69373944695 833.22012808217 1372.29373944695 836.12012808217 1361.59373944695 C 839.12012808217 1361.59373944695 842.12012808217 1360.99373944695 845.22012808217 1359.59373944695 C 846.92012808217 1358.79373944695 848.72012808217 1357.79373944695 850.52012808217 1356.59373944695 C 852.22012808217 1355.29373944695 853.92012808217 1353.79373944695 855.52012808217 1351.99373944695 C 858.92012808217 1348.49373944695 861.52012808217 1344.09373944695 863.72012808217 1339.29373944695 C 864.72012808217 1336.89373944695 865.62012808217 1334.29373944695 866.42012808217 1331.69373944695 C 867.22012808217 1329.09373944695 867.72012808217 1326.29373944695 868.12012808217 1323.49373944695 C 865.12012808217 1323.49373944695 861.82012808217 1324.89373944695 858.62012808217 1327.09373944695 Z"/><path fill="#ffae11" transform="matrix(0.38910596690713434 0 0 0.38910596690713434 2.8712019555364687 -4.882011341805228)" d="M 510.32012808217 1472.69373944695 C 509.92012808217 1468.99373944695 508.82012808217 1465.19373944695 507.22012808217 1461.29373944695 C 504.02012808217 1453.49373944695 499.12012808217 1446.39373944695 493.12012808217 1440.29373944695 C 491.52012808217 1443.19373944695 490.42012808217 1446.49373944695 490.22012808217 1450.19373944695 C 490.02012808217 1453.79373944695 490.42012808217 1457.79373944695 491.92012808217 1461.89373944695 C 494.02012808217 1467.99373944695 498.12012808217 1473.69373944695 503.42012808217 1478.49373944695 C 503.32012808217 1478.39373944695 503.22012808217 1478.39373944695 503.12012808217 1478.29373944695 C 493.72012808217 1472.99373944695 484.92012808217 1466.79373944695 476.62012808217 1459.89373944695 C 477.82012808217 1457.19373944695 478.62012808217 1454.19373944695 478.92012808217 1450.99373944695 C 479.32012808217 1447.29373944695 479.12012808217 1443.29373944695 478.32012808217 1439.19373944695 C 476.82012808217 1430.79373944695 473.42012808217 1422.79373944695 468.82012808217 1415.59373944695 C 464.42012808217 1420.59373944695 462.02012808217 1427.69373944695 463.22012808217 1436.49373944695 C 464.02012808217 1442.99373944695 466.82012808217 1449.39373944695 471.02012808217 1455.09373944695 C 465.52012808217 1450.19373944695 460.32012808217 1444.89373944695 455.42012808217 1439.39373944695 C 453.02012808217 1436.79373944695 450.82012808217 1433.99373944695 448.62012808217 1431.29373944695 C 450.42012808217 1428.89373944695 451.82012808217 1426.09373944695 452.72012808217 1422.99373944695 C 453.82012808217 1419.49373944695 454.52012808217 1415.49373944695 454.52012808217 1411.29373944695 C 454.72012808217 1402.69373944695 453.02012808217 1394.29373944695 450.02012808217 1386.29373944695 C 448.72012808217 1387.29373944695 447.52012808217 1388.49373944695 446.32012808217 1389.79373944695 C 445.22012808217 1391.09373944695 444.22012808217 1392.59373944695 443.42012808217 1394.19373944695 C 441.72012808217 1397.39373944695 440.52012808217 1401.29373944695 440.32012808217 1405.69373944695 C 439.82012808217 1412.19373944695 441.22012808217 1419.09373944695 444.22012808217 1425.59373944695 C 437.72012808217 1416.79373944695 432.02012808217 1407.49373944695 427.02012808217 1397.69373944695 C 431.72012808217 1393.39373944695 435.02012808217 1387.09373944695 436.82012808217 1379.29373944695 C 438.72012808217 1370.99373944695 438.72012808217 1362.29373944695 437.42012808217 1353.89373944695 C 434.42012808217 1355.29373944695 431.72012808217 1357.39373944695 429.42012808217 1360.29373944695 C 428.22012808217 1361.69373944695 427.22012808217 1363.29373944695 426.32012808217 1365.09373944695 C 425.42012808217 1366.89373944695 424.72012808217 1368.79373944695 424.12012808217 1370.89373944695 C 422.42012808217 1377.09373944695 422.32012808217 1384.09373944695 423.82012808217 1390.99373944695 C 419.32012808217 1381.09373944695 415.52012808217 1370.89373944695 412.72012808217 1360.39373944695 C 415.32012808217 1358.89373944695 417.62012808217 1356.89373944695 419.72012808217 1354.39373944695 C 420.92012808217 1352.99373944695 422.02012808217 1351.49373944695 423.02012808217 1349.79373944695 C 424.12012808217 1348.09373944695 425.12012808217 1346.29373944695 426.02012808217 1344.39373944695 C 427.72012808217 1340.59373944695 429.22012808217 1336.49373944695 430.02012808217 1332.39373944695 C 430.52012808217 1330.29373944695 430.92012808217 1328.19373944695 431.22012808217 1326.09373944695 C 431.42012808217 1323.99373944695 431.72012808217 1321.89373944695 431.82012808217 1319.69373944695 C 428.62012808217 1320.49373944695 425.52012808217 1321.99373944695 422.62012808217 1324.29373944695 C 419.72012808217 1326.59373944695 417.32012808217 1329.59373944695 415.22012808217 1333.49373944695 C 412.32012808217 1339.19373944695 410.82012808217 1346.09373944695 410.92012808217 1353.19373944695 C 409.02012808217 1344.89373944695 407.62012808217 1336.49373944695 406.82012808217 1328.09373944695 C 406.62012808217 1325.69373944695 406.42012808217 1323.39373944695 406.32012808217 1320.99373944695 C 412.32012808217 1318.99373944695 417.92012808217 1314.49373944695 422.72012808217 1308.09373944695 C 425.32012808217 1304.69373944695 427.32012808217 1300.99373944695 429.22012808217 1297.09373944695 C 429.62012808217 1296.09373944695 430.12012808217 1295.19373944695 430.42012808217 1294.19373944695 L 430.92012808217 1292.69373944695 L 431.52012808217 1291.19373944695 C 432.32012808217 1289.19373944695 432.92012808217 1287.19373944695 433.42012808217 1285.09373944695 C 430.12012808217 1285.19373944695 426.82012808217 1285.99373944695 423.52012808217 1287.69373944695 C 421.92012808217 1288.49373944695 420.32012808217 1289.59373944695 418.72012808217 1290.79373944695 C 417.12012808217 1291.99373944695 415.72012808217 1293.49373944695 414.32012808217 1295.19373944695 C 412.92012808217 1296.89373944695 411.62012808217 1298.79373944695 410.52012808217 1300.69373944695 C 409.52012808217 1302.69373944695 408.52012808217 1304.79373944695 407.72012808217 1306.99373944695 C 407.32012808217 1308.09373944695 406.92012808217 1309.19373944695 406.62012808217 1310.39373944695 C 406.32012808217 1311.39373944695 406.12012808217 1312.49373944695 405.92012808217 1313.49373944695 C 405.82012808217 1307.99373944695 405.92012808217 1302.59373944695 406.32012808217 1297.09373944695 C 406.62012808217 1291.69373944695 407.22012808217 1286.29373944695 408.02012808217 1280.89373944695 C 410.92012808217 1280.59373944695 413.92012808217 1279.69373944695 416.92012808217 1278.29373944695 C 420.32012808217 1276.69373944695 423.42012808217 1274.49373944695 426.72012808217 1271.69373944695 C 428.32012808217 1270.29373944695 429.82012808217 1268.79373944695 431.22012808217 1267.19373944695 C 432.62012808217 1265.59373944695 434.02012808217 1263.99373944695 435.32012808217 1262.29373944695 C 435.92012808217 1261.39373944695 436.52012808217 1260.59373944695 437.12012808217 1259.69373944695 C 437.72012808217 1258.79373944695 438.32012808217 1257.89373944695 438.92012808217 1256.99373944695 C 439.52012808217 1256.09373944695 440.02012808217 1255.19373944695 440.52012808217 1254.29373944695 C 441.02012808217 1253.39373944695 441.52012808217 1252.39373944695 442.02012808217 1251.49373944695 C 440.42012808217 1251.19373944695 438.72012808217 1251.09373944695 436.92012808217 1251.09373944695 C 435.22012808217 1251.19373944695 433.52012808217 1251.39373944695 431.72012808217 1251.89373944695 C 430.02012808217 1252.39373944695 428.22012808217 1252.99373944695 426.42012808217 1253.89373944695 C 425.52012808217 1254.29373944695 424.62012808217 1254.89373944695 423.72012808217 1255.39373944695 C 422.82012808217 1255.99373944695 422.02012808217 1256.59373944695 421.12012808217 1257.29373944695 C 419.42012808217 1258.69373944695 417.82012808217 1260.19373944695 416.32012808217 1261.89373944695 C 414.82012808217 1263.59373944695 413.52012808217 1265.49373944695 412.32012808217 1267.49373944695 C 411.72012808217 1268.49373944695 411.12012808217 1269.49373944695 410.52012808217 1270.59373944695 C 410.02012808217 1271.49373944695 409.62012808217 1272.49373944695 409.22012808217 1273.49373944695 C 409.72012808217 1271.09373944695 410.22012808217 1268.79373944695 410.72012808217 1266.39373944695 C 412.62012808217 1258.09373944695 415.02012808217 1249.99373944695 418.02012808217 1242.09373944695 C 421.02012808217 1242.39373944695 424.12012808217 1242.09373944695 427.22012808217 1241.39373944695 C 429.02012808217 1240.99373944695 430.82012808217 1240.39373944695 432.62012808217 1239.59373944695 C 434.52012808217 1238.89373944695 436.32012808217 1237.99373944695 438.22012808217 1236.99373944695 C 441.82012808217 1234.89373944695 445.42012808217 1232.49373944695 448.52012808217 1229.59373944695 C 450.12012808217 1228.19373944695 451.72012808217 1226.79373944695 453.12012808217 1225.19373944695 C 453.82012808217 1224.39373944695 454.52012808217 1223.59373944695 455.22012808217 1222.79373944695 C 455.92012808217 1221.99373944695 456.62012808217 1221.19373944695 457.32012808217 1220.39373944695 C 454.22012808217 1219.19373944695 450.82012808217 1218.49373944695 447.12012808217 1218.69373944695 C 443.52012808217 1218.89373944695 439.72012808217 1219.89373944695 435.72012808217 1221.79373944695 C 430.02012808217 1224.69373944695 424.82012808217 1229.39373944695 420.72012808217 1235.09373944695 C 424.52012808217 1226.19373944695 428.92012808217 1217.69373944695 433.92012808217 1209.49373944695 C 434.52012808217 1208.39373944695 435.22012808217 1207.39373944695 435.92012808217 1206.39373944695 C 438.72012808217 1207.29373944695 441.82012808217 1207.69373944695 445.12012808217 1207.59373944695 C 448.82012808217 1207.49373944695 452.82012808217 1206.89373944695 456.82012808217 1205.59373944695 C 465.02012808217 1203.09373944695 472.32012808217 1198.69373944695 479.02012808217 1193.39373944695 C 476.32012808217 1191.59373944695 473.12012808217 1190.29373944695 469.52012808217 1189.69373944695 C 467.72012808217 1189.39373944695 465.82012808217 1189.29373944695 463.82012808217 1189.39373944695 C 461.82012808217 1189.49373944695 459.82012808217 1189.89373944695 457.72012808217 1190.39373944695 C 456.62012808217 1190.69373944695 455.62012808217 1190.99373944695 454.52012808217 1191.39373944695 C 453.42012808217 1191.79373944695 452.42012808217 1192.19373944695 451.42012808217 1192.69373944695 C 449.42012808217 1193.69373944695 447.32012808217 1194.79373944695 445.42012808217 1196.09373944695 C 443.62012808217 1197.39373944695 441.82012808217 1198.89373944695 440.12012808217 1200.39373944695 C 443.92012808217 1194.99373944695 448.02012808217 1189.69373944695 452.32012808217 1184.69373944695 C 455.12012808217 1181.39373944695 458.02012808217 1178.29373944695 461.02012808217 1175.19373944695 C 462.12012808217 1175.79373944695 463.32012808217 1176.39373944695 464.52012808217 1176.79373944695 C 466.12012808217 1177.39373944695 467.92012808217 1177.89373944695 469.72012808217 1178.29373944695 C 471.52012808217 1178.59373944695 473.42012808217 1178.89373944695 475.42012808217 1178.89373944695 C 476.42012808217 1178.89373944695 477.42012808217 1178.89373944695 478.42012808217 1178.89373944695 C 479.42012808217 1178.89373944695 480.52012808217 1178.79373944695 481.62012808217 1178.69373944695 C 483.72012808217 1178.49373944695 485.82012808217 1178.19373944695 487.92012808217 1177.69373944695 C 490.02012808217 1177.29373944695 492.12012808217 1176.79373944695 494.12012808217 1176.09373944695 C 495.12012808217 1175.79373944695 496.12012808217 1175.39373944695 497.12012808217 1174.99373944695 C 498.12012808217 1174.69373944695 499.12012808217 1174.29373944695 500.12012808217 1173.89373944695 C 501.12012808217 1173.49373944695 502.12012808217 1173.09373944695 503.02012808217 1172.59373944695 C 504.02012808217 1172.09373944695 504.92012808217 1171.59373944695 505.92012808217 1171.19373944695 C 504.72012808217 1169.99373944695 503.42012808217 1168.89373944695 502.02012808217 1167.89373944695 C 500.62012808217 1166.99373944695 499.02012808217 1166.19373944695 497.32012808217 1165.49373944695 C 495.62012808217 1164.89373944695 493.82012808217 1164.39373944695 491.82012808217 1163.99373944695 C 490.82012808217 1163.79373944695 489.82012808217 1163.69373944695 488.72012808217 1163.69373944695 C 487.72012808217 1163.69373944695 486.62012808217 1163.69373944695 485.52012808217 1163.69373944695 C 483.32012808217 1163.79373944695 481.12012808217 1164.09373944695 478.92012808217 1164.59373944695 C 476.72012808217 1165.09373944695 474.52012808217 1165.89373944695 472.32012808217 1166.79373944695 C 471.22012808217 1167.29373944695 470.12012808217 1167.69373944695 469.02012808217 1168.29373944695 C 468.02012808217 1168.79373944695 467.02012808217 1169.39373944695 466.12012808217 1169.99373944695 C 468.72012808217 1167.49373944695 471.42012808217 1165.09373944695 474.22012808217 1162.79373944695 C 479.82012808217 1158.09373944695 485.72012808217 1153.69373944695 491.92012808217 1149.59373944695 C 494.12012808217 1151.59373944695 496.82012808217 1153.19373944695 499.72012808217 1154.39373944695 C 501.42012808217 1155.09373944695 503.22012808217 1155.59373944695 505.12012808217 1156.09373944695 C 507.02012808217 1156.59373944695 509.12012808217 1156.99373944695 511.22012808217 1157.19373944695 C 515.42012808217 1157.59373944695 519.72012808217 1157.79373944695 523.92012808217 1157.29373944695 C 528.22012808217 1156.99373944695 532.32012808217 1156.09373944695 536.42012808217 1155.09373944695 C 534.62012808217 1152.29373944695 532.22012808217 1149.79373944695 529.22012808217 1147.69373944695 C 526.22012808217 1145.69373944695 522.52012808217 1144.29373944695 518.12012808217 1143.49373944695 C 511.82012808217 1142.49373944695 504.82012808217 1143.19373944695 498.12012808217 1145.49373944695 C 498.52012808217 1145.29373944695 498.92012808217 1144.99373944695 499.32012808217 1144.79373944695 L 506.02012808217 1140.99373944695 L 512.92012808217 1137.49373944695 C 514.02012808217 1136.89373944695 515.22012808217 1136.39373944695 516.42012808217 1135.79373944695 L 519.92012808217 1134.19373944695 C 521.12012808217 1133.69373944695 522.22012808217 1133.09373944695 523.42012808217 1132.59373944695 L 527.02012808217 1131.19373944695 L 526.62012808217 1130.09373944695 C 528.52012808217 1132.89373944695 531.02012808217 1135.29373944695 534.02012808217 1137.39373944695 C 537.02012808217 1139.49373944695 540.62012808217 1141.29373944695 544.62012808217 1142.59373944695 C 552.72012808217 1145.39373944695 561.22012808217 1146.09373944695 569.72012808217 1145.79373944695 C 567.52012808217 1139.59373944695 562.42012808217 1133.89373944695 554.22012808217 1130.79373944695 C 553.22012808217 1130.39373944695 552.12012808217 1129.99373944695 551.02012808217 1129.69373944695 C 549.92012808217 1129.39373944695 548.82012808217 1129.19373944695 547.72012808217 1128.99373944695 C 545.52012808217 1128.59373944695 543.22012808217 1128.29373944695 540.82012808217 1128.19373944695 C 536.12012808217 1128.19373944695 531.22012808217 1128.69373944695 526.52012808217 1130.19373944695 L 526.52012808217 1130.19373944695 C 530.92012808217 1127.89373944695 535.22012808217 1125.49373944695 539.12012808217 1122.59373944695 C 541.12012808217 1121.29373944695 543.02012808217 1119.79373944695 544.82012808217 1118.29373944695 C 545.72012808217 1117.49373944695 546.62012808217 1116.69373944695 547.52012808217 1115.89373944695 C 548.42012808217 1115.09373944695 549.22012808217 1114.29373944695 550.02012808217 1113.49373944695 C 556.52012808217 1106.69373944695 560.32012808217 1099.89373944695 560.82012808217 1093.09373944695 C 549.92012808217 1095.69373944695 540.12012808217 1101.59373944695 533.82012808217 1108.69373944695 C 530.62012808217 1112.39373944695 528.52012808217 1116.09373944695 527.32012808217 1119.69373944695 C 526.22012808217 1123.39373944695 525.92012808217 1126.89373944695 526.52012808217 1130.19373944695 L 526.12012808217 1129.09373944695 L 522.52012808217 1130.49373944695 C 521.32012808217 1130.99373944695 520.12012808217 1131.59373944695 518.92012808217 1132.09373944695 L 515.32012808217 1133.69373944695 C 514.12012808217 1134.19373944695 512.92012808217 1134.79373944695 511.82012808217 1135.39373944695 L 504.82012808217 1138.99373944695 L 498.02012808217 1142.89373944695 C 497.52012808217 1143.19373944695 497.02012808217 1143.49373944695 496.52012808217 1143.79373944695 C 501.82012808217 1138.89373944695 506.62012808217 1133.49373944695 510.22012808217 1127.49373944695 C 512.72012808217 1123.59373944695 514.52012808217 1119.69373944695 515.62012808217 1115.89373944695 C 516.72012808217 1112.19373944695 517.02012808217 1108.59373944695 516.62012808217 1105.29373944695 C 511.52012808217 1107.69373944695 507.02012808217 1110.99373944695 503.02012808217 1114.39373944695 C 499.12012808217 1118.09373944695 495.82012808217 1121.89373944695 493.52012808217 1126.19373944695 C 492.32012808217 1128.29373944695 491.42012808217 1130.39373944695 490.72012808217 1132.39373944695 C 490.02012808217 1134.39373944695 489.72012808217 1136.39373944695 489.52012808217 1138.29373944695 C 489.22012808217 1141.69373944695 489.52012808217 1144.79373944695 490.42012808217 1147.59373944695 C 484.22012808217 1151.69373944695 478.22012808217 1156.09373944695 472.52012808217 1160.89373944695 C 469.82012808217 1163.19373944695 467.12012808217 1165.59373944695 464.52012808217 1167.99373944695 C 465.12012808217 1167.09373944695 465.72012808217 1166.29373944695 466.22012808217 1165.39373944695 C 466.92012808217 1164.39373944695 467.52012808217 1163.39373944695 468.22012808217 1162.29373944695 C 469.52012808217 1160.19373944695 470.62012808217 1158.09373944695 471.62012808217 1155.89373944695 C 472.72012808217 1153.79373944695 473.62012808217 1151.59373944695 474.42012808217 1149.39373944695 C 474.82012808217 1148.29373944695 475.12012808217 1147.19373944695 475.52012808217 1146.09373944695 C 475.82012808217 1144.99373944695 476.12012808217 1143.99373944695 476.42012808217 1142.99373944695 C 476.92012808217 1140.89373944695 477.22012808217 1138.89373944695 477.32012808217 1136.99373944695 C 477.42012808217 1135.09373944695 477.42012808217 1133.19373944695 477.22012808217 1131.39373944695 C 477.02012808217 1129.59373944695 476.62012808217 1127.99373944695 476.12012808217 1126.39373944695 C 475.02012808217 1127.19373944695 473.92012808217 1128.19373944695 472.92012808217 1129.09373944695 C 471.92012808217 1129.99373944695 470.92012808217 1130.99373944695 469.92012808217 1131.99373944695 C 468.92012808217 1132.99373944695 468.02012808217 1133.99373944695 467.12012808217 1134.99373944695 C 466.22012808217 1136.09373944695 465.42012808217 1137.09373944695 464.72012808217 1138.19373944695 C 463.22012808217 1140.39373944695 461.72012808217 1142.49373944695 460.62012808217 1144.79373944695 C 459.52012808217 1147.09373944695 458.52012808217 1149.39373944695 457.82012808217 1151.69373944695 C 457.42012808217 1152.79373944695 457.12012808217 1153.99373944695 456.92012808217 1155.09373944695 C 456.72012808217 1156.19373944695 456.52012808217 1157.29373944695 456.42012808217 1158.39373944695 C 456.22012808217 1160.49373944695 456.22012808217 1162.59373944695 456.42012808217 1164.39373944695 C 456.62012808217 1166.29373944695 457.02012808217 1168.09373944695 457.62012808217 1169.69373944695 C 458.12012808217 1170.99373944695 458.62012808217 1172.19373944695 459.32012808217 1173.29373944695 C 456.32012808217 1176.39373944695 453.32012808217 1179.59373944695 450.52012808217 1182.89373944695 C 446.22012808217 1187.99373944695 442.02012808217 1193.19373944695 438.22012808217 1198.69373944695 C 439.12012808217 1196.59373944695 439.92012808217 1194.49373944695 440.62012808217 1192.29373944695 C 441.42012808217 1189.99373944695 442.12012808217 1187.69373944695 442.72012808217 1185.39373944695 C 443.02012808217 1184.19373944695 443.22012808217 1183.09373944695 443.42012808217 1181.89373944695 C 443.62012808217 1180.79373944695 443.92012808217 1179.59373944695 444.02012808217 1178.39373944695 C 444.32012808217 1176.09373944695 444.52012808217 1173.89373944695 444.52012808217 1171.69373944695 C 444.52012808217 1169.59373944695 444.52012808217 1167.59373944695 444.22012808217 1165.59373944695 C 443.72012808217 1161.79373944695 442.52012808217 1158.29373944695 440.82012808217 1155.49373944695 C 433.52012808217 1164.09373944695 429.12012808217 1174.49373944695 428.12012808217 1183.99373944695 C 427.72012808217 1188.89373944695 428.22012808217 1193.09373944695 429.32012808217 1196.69373944695 C 430.42012808217 1199.89373944695 432.02012808217 1202.59373944695 433.92012808217 1204.79373944695 C 433.22012808217 1205.89373944695 432.62012808217 1206.89373944695 431.92012808217 1207.99373944695 C 426.82012808217 1216.39373944695 422.32012808217 1225.19373944695 418.52012808217 1234.19373944695 C 419.92012808217 1227.09373944695 420.62012808217 1219.89373944695 420.12012808217 1212.89373944695 C 419.92012808217 1208.29373944695 419.02012808217 1204.09373944695 417.72012808217 1200.39373944695 C 416.42012808217 1196.79373944695 414.62012808217 1193.69373944695 412.32012808217 1191.19373944695 C 411.62012808217 1192.39373944695 411.02012808217 1193.69373944695 410.42012808217 1194.89373944695 C 409.82012808217 1196.19373944695 409.32012808217 1197.49373944695 408.92012808217 1198.79373944695 C 408.02012808217 1201.39373944695 407.22012808217 1203.99373944695 406.62012808217 1206.59373944695 C 405.62012808217 1211.89373944695 405.12012808217 1216.89373944695 405.82012808217 1221.79373944695 C 406.12012808217 1224.19373944695 406.62012808217 1226.39373944695 407.22012808217 1228.39373944695 C 407.92012808217 1230.39373944695 408.72012808217 1232.29373944695 409.72012808217 1233.89373944695 C 411.42012808217 1236.79373944695 413.52012808217 1239.09373944695 415.92012808217 1240.89373944695 C 412.92012808217 1248.89373944695 410.42012808217 1257.19373944695 408.52012808217 1265.49373944695 C 408.02012808217 1267.89373944695 407.42012808217 1270.29373944695 407.02012808217 1272.69373944695 C 407.02012808217 1271.59373944695 406.92012808217 1270.49373944695 406.92012808217 1269.39373944695 C 406.92012808217 1268.19373944695 406.82012808217 1266.99373944695 406.72012808217 1265.79373944695 C 406.52012808217 1263.39373944695 406.12012808217 1260.99373944695 405.72012808217 1258.59373944695 C 405.32012808217 1256.29373944695 404.82012808217 1253.99373944695 404.12012808217 1251.69373944695 C 403.82012808217 1250.59373944695 403.42012808217 1249.49373944695 403.02012808217 1248.39373944695 C 402.72012808217 1247.39373944695 402.32012808217 1246.29373944695 401.92012808217 1245.39373944695 C 401.12012808217 1243.39373944695 400.22012808217 1241.59373944695 399.12012808217 1239.99373944695 C 398.12012808217 1238.29373944695 396.92012808217 1236.89373944695 395.72012808217 1235.49373944695 C 394.52012808217 1234.19373944695 393.22012808217 1233.09373944695 391.82012808217 1232.09373944695 C 391.42012808217 1233.39373944695 391.12012808217 1234.79373944695 390.82012808217 1236.19373944695 C 390.52012808217 1237.59373944695 390.32012808217 1238.89373944695 390.12012808217 1240.29373944695 C 389.92012808217 1241.69373944695 389.72012808217 1242.99373944695 389.62012808217 1244.39373944695 C 389.52012808217 1245.79373944695 389.52012808217 1247.09373944695 389.52012808217 1248.39373944695 C 389.52012808217 1251.09373944695 389.72012808217 1253.69373944695 390.02012808217 1256.19373944695 C 390.42012808217 1258.69373944695 391.02012808217 1261.09373944695 391.82012808217 1263.39373944695 C 393.32012808217 1267.99373944695 395.62012808217 1271.69373944695 398.12012808217 1274.49373944695 C 400.42012808217 1276.99373944695 402.92012808217 1278.79373944695 405.62012808217 1279.99373944695 C 404.82012808217 1285.39373944695 404.22012808217 1290.89373944695 403.82012808217 1296.39373944695 C 403.52012808217 1301.89373944695 403.32012808217 1307.49373944695 403.42012808217 1312.99373944695 C 403.12012808217 1311.89373944695 402.92012808217 1310.89373944695 402.62012808217 1309.79373944695 C 402.32012808217 1308.59373944695 402.02012808217 1307.49373944695 401.62012808217 1306.29373944695 C 400.92012808217 1303.99373944695 400.12012808217 1301.69373944695 399.22012808217 1299.49373944695 C 398.32012808217 1297.29373944695 397.42012808217 1295.09373944695 396.32012808217 1293.09373944695 C 395.22012808217 1290.99373944695 394.02012808217 1289.09373944695 392.82012808217 1287.39373944695 C 391.62012808217 1285.69373944695 390.32012808217 1284.09373944695 389.02012808217 1282.69373944695 C 386.32012808217 1279.89373944695 383.42012808217 1277.79373944695 380.22012808217 1276.49373944695 C 380.12012808217 1279.29373944695 380.12012808217 1282.09373944695 380.22012808217 1284.79373944695 L 380.32012808217 1286.79373944695 L 380.62012808217 1288.79373944695 C 380.82012808217 1290.09373944695 381.02012808217 1291.49373944695 381.32012808217 1292.79373944695 C 382.32012808217 1297.99373944695 384.32012808217 1302.79373944695 386.72012808217 1306.99373944695 C 391.42012808217 1314.79373944695 397.52012808217 1319.09373944695 403.72012808217 1320.39373944695 C 403.82012808217 1322.79373944695 404.02012808217 1325.19373944695 404.22012808217 1327.59373944695 C 405.02012808217 1336.19373944695 406.42012808217 1344.79373944695 408.42012808217 1353.19373944695 C 405.42012808217 1346.59373944695 401.72012808217 1340.49373944695 397.22012808217 1335.09373944695 C 394.32012808217 1331.49373944695 391.02012808217 1328.59373944695 387.92012808217 1326.39373944695 C 384.72012808217 1324.19373944695 381.42012808217 1322.79373944695 378.12012808217 1322.19373944695 C 378.52012808217 1324.99373944695 379.02012808217 1327.69373944695 379.82012808217 1330.39373944695 C 380.62012808217 1332.99373944695 381.52012808217 1335.59373944695 382.52012808217 1337.99373944695 C 384.82012808217 1342.79373944695 387.42012808217 1347.19373944695 390.72012808217 1350.69373944695 C 392.32012808217 1352.49373944695 394.02012808217 1353.99373944695 395.72012808217 1355.29373944695 C 397.52012808217 1356.59373944695 399.22012808217 1357.59373944695 401.02012808217 1358.29373944695 C 404.12012808217 1359.69373944695 407.22012808217 1360.29373944695 410.12012808217 1360.29373944695 C 413.02012808217 1370.99373944695 416.82012808217 1381.39373944695 421.52012808217 1391.49373944695 C 417.22012808217 1385.69373944695 412.32012808217 1380.29373944695 406.92012808217 1375.99373944695 C 405.12012808217 1374.49373944695 403.22012808217 1373.29373944695 401.42012808217 1372.19373944695 C 399.62012808217 1371.09373944695 397.82012808217 1370.19373944695 396.02012808217 1369.39373944695 C 392.42012808217 1367.89373944695 388.92012808217 1367.19373944695 385.52012808217 1367.29373944695 C 389.42012808217 1377.79373944695 395.92012808217 1386.99373944695 403.82012808217 1392.59373944695 C 411.22012808217 1397.89373944695 418.62012808217 1399.29373944695 424.72012808217 1397.99373944695 C 429.72012808217 1407.79373944695 435.52012808217 1417.29373944695 442.02012808217 1426.09373944695 C 436.62012808217 1421.29373944695 430.82012808217 1417.19373944695 424.72012808217 1413.99373944695 C 420.52012808217 1411.89373944695 416.52012808217 1410.49373944695 412.72012808217 1409.79373944695 C 410.82012808217 1409.39373944695 408.92012808217 1409.29373944695 407.12012808217 1409.29373944695 C 405.32012808217 1409.29373944695 403.62012808217 1409.49373944695 402.02012808217 1409.89373944695 C 407.92012808217 1419.39373944695 416.22012808217 1426.99373944695 424.92012808217 1430.99373944695 C 429.42012808217 1432.89373944695 433.52012808217 1433.89373944695 437.32012808217 1433.89373944695 C 440.72012808217 1433.89373944695 443.72012808217 1433.29373944695 446.52012808217 1432.09373944695 C 448.72012808217 1434.89373944695 451.02012808217 1437.59373944695 453.42012808217 1440.29373944695 C 458.42012808217 1445.89373944695 463.72012808217 1451.19373944695 469.22012808217 1456.19373944695 C 468.32012808217 1455.59373944695 467.32012808217 1455.09373944695 466.32012808217 1454.59373944695 C 465.22012808217 1453.99373944695 464.12012808217 1453.49373944695 463.12012808217 1452.89373944695 C 460.92012808217 1451.79373944695 458.72012808217 1450.89373944695 456.52012808217 1449.99373944695 C 454.32012808217 1449.09373944695 452.12012808217 1448.39373944695 449.82012808217 1447.79373944695 C 440.82012808217 1445.39373944695 432.82012808217 1445.49373944695 426.72012808217 1448.19373944695 C 434.42012808217 1456.29373944695 444.02012808217 1462.19373944695 453.42012808217 1464.19373944695 C 458.12012808217 1465.19373944695 462.52012808217 1465.19373944695 466.22012808217 1464.49373944695 C 469.52012808217 1463.79373944695 472.42012808217 1462.59373944695 474.82012808217 1460.89373944695 C 483.22012808217 1467.89373944695 492.22012808217 1474.09373944695 501.62012808217 1479.49373944695 C 501.72012808217 1479.59373944695 501.82012808217 1479.59373944695 502.02012808217 1479.69373944695 C 495.12012808217 1477.49373944695 488.12012808217 1476.09373944695 481.22012808217 1475.59373944695 C 476.52012808217 1475.39373944695 472.32012808217 1475.59373944695 468.52012808217 1476.49373944695 C 464.72012808217 1477.39373944695 461.42012808217 1478.69373944695 458.72012808217 1480.79373944695 C 467.92012808217 1487.19373944695 478.62012808217 1490.99373944695 488.32012808217 1490.99373944695 C 490.72012808217 1491.09373944695 493.02012808217 1490.79373944695 495.12012808217 1490.39373944695 C 497.22012808217 1489.99373944695 499.12012808217 1489.39373944695 500.92012808217 1488.69373944695 C 504.02012808217 1487.39373944695 506.62012808217 1485.49373944695 508.62012808217 1483.29373944695 C 524.82012808217 1491.69373944695 542.32012808217 1497.59373944695 560.32012808217 1500.69373944695 L 560.72012808217 1498.39373944695 C 542.92012808217 1495.39373944695 525.72012808217 1489.49373944695 509.72012808217 1481.29373944695 C 510.62012808217 1478.99373944695 510.72012808217 1475.99373944695 510.32012808217 1472.69373944695 Z"/><path id="text" transform="matrix(0.6271894901778905 0 0 0.6271894901778905 212.06021677099196 23.91608755133528)" d="M 258.40442282193 738.35508002666 C 256.19642282193 738.09908002666 253.78042282193 737.61908002666 251.15642282193 736.91508002666 C 248.21242282193 736.14708002666 245.78042282193 735.13908002666 243.86042282193 733.89108002666 C 241.94042282193 732.64308002666 240.34042282193 730.89908002666 239.06042282193 728.65908002666 C 237.71642282193 726.41908002666 237.04442282193 723.76308002666 237.04442282193 720.69108002666 L 237.04442282193 693.33108002666 C 237.04442282193 680.78708002666 246.67642282193 674.51508002666 265.94042282193 674.51508002666 C 270.86842282193 674.51508002666 277.46042282193 675.21908002666 285.71642282193 676.62708002666 L 285.71642282193 687.85908002666 C 278.29242282193 686.06708002666 271.76442282193 685.17108002666 266.13242282193 685.17108002666 C 263.76442282193 685.17108002666 261.92442282193 685.23508002666 260.61242282193 685.36308002666 C 259.30042282193 685.49108002666 257.94042282193 685.81108002666 256.53242282193 686.32308002666 C 253.52442282193 687.34708002666 252.02042282193 689.61908002666 252.02042282193 693.13908002666 L 252.02042282193 719.63508002666 C 252.02042282193 725.26708002666 257.17242282193 728.08308002666 267.47642282193 728.08308002666 C 271.89242282193 728.08308002666 278.10042282193 727.15508002666 286.10042282193 725.29908002666 L 286.10042282193 736.62708002666 C 279.25242282193 738.03508002666 272.53242282193 738.73908002666 265.94042282193 738.73908002666 C 263.12442282193 738.73908002666 260.61242282193 738.61108002666 258.40442282193 738.35508002666 Z M 312.21242282193 675.47508002666 L 330.45242282193 675.47508002666 L 352.91642282193 737.77908002666 L 337.74842282193 737.77908002666 L 332.18042282193 721.36308002666 L 309.42842282193 721.36308002666 L 303.95642282193 737.77908002666 L 289.17242282193 737.77908002666 L 312.21242282193 675.47508002666 Z M 328.91642282193 711.37908002666 L 321.04442282193 687.95508002666 L 320.66042282193 687.95508002666 L 312.78842282193 711.37908002666 L 328.91642282193 711.37908002666 Z M 359.82842282193 675.47508002666 L 381.14042282193 675.47508002666 L 396.50042282193 720.01908002666 L 411.66842282193 675.47508002666 L 431.73242282193 675.47508002666 L 431.73242282193 737.77908002666 L 418.19642282193 737.77908002666 L 418.19642282193 691.69908002666 L 417.90842282193 691.69908002666 L 402.16442282193 737.77908002666 L 390.16442282193 737.77908002666 L 373.94042282193 691.69908002666 L 373.55642282193 691.69908002666 L 373.55642282193 737.77908002666 L 359.82842282193 737.77908002666 L 359.82842282193 675.47508002666 Z M 445.17242282193 675.47508002666 L 470.13242282193 675.47508002666 C 476.21242282193 675.47508002666 481.02842282193 675.89108002666 484.58042282193 676.72308002666 C 488.13242282193 677.55508002666 490.72442282193 679.01108002666 492.35642282193 681.09108002666 C 493.98842282193 683.17108002666 494.80442282193 686.06708002666 494.80442282193 689.77908002666 L 494.80442282193 701.58708002666 C 494.80442282193 705.68308002666 493.92442282193 708.88308002666 492.16442282193 711.18708002666 C 490.40442282193 713.49108002666 487.62042282193 715.12308002666 483.81242282193 716.08308002666 C 480.00442282193 717.04308002666 474.86842282193 717.52308002666 468.40442282193 717.52308002666 L 460.14842282193 717.52308002666 L 460.14842282193 737.77908002666 L 445.17242282193 737.77908002666 L 445.17242282193 675.47508002666 Z M 469.65242282193 707.25108002666 C 473.55642282193 707.25108002666 476.30842282193 706.78708002666 477.90842282193 705.85908002666 C 479.50842282193 704.93108002666 480.30842282193 703.34708002666 480.30842282193 701.10708002666 L 480.30842282193 691.12308002666 C 480.30842282193 689.07508002666 479.54042282193 687.73108002666 478.00442282193 687.09108002666 C 476.53242282193 686.45108002666 473.68442282193 686.13108002666 469.46042282193 686.13108002666 L 460.14842282193 686.13108002666 L 460.14842282193 707.25108002666 L 469.65242282193 707.25108002666 Z M 505.17242282193 720.69108002666 L 505.17242282193 675.47508002666 L 520.14842282193 675.47508002666 L 520.14842282193 720.69108002666 C 520.14842282193 723.50708002666 521.06042282193 725.44308002666 522.88442282193 726.49908002666 C 524.70842282193 727.55508002666 527.86042282193 728.08308002666 532.34042282193 728.08308002666 C 536.75642282193 728.08308002666 539.84442282193 727.55508002666 541.60442282193 726.49908002666 C 543.36442282193 725.44308002666 544.24442282193 723.50708002666 544.24442282193 720.69108002666 L 544.24442282193 675.47508002666 L 559.22042282193 675.47508002666 L 559.22042282193 720.69108002666 C 559.22042282193 732.72308002666 550.19642282193 738.73908002666 532.14842282193 738.73908002666 C 514.16442282193 738.73908002666 505.17242282193 732.72308002666 505.17242282193 720.69108002666 Z M 570.54842282193 737.01108002666 L 570.54842282193 725.58708002666 C 581.42842282193 727.25108002666 588.85242282193 728.08308002666 592.82042282193 728.08308002666 C 601.14042282193 728.08308002666 605.30042282193 725.93908002666 605.30042282193 721.65108002666 L 605.30042282193 717.61908002666 C 605.30042282193 715.57108002666 604.70842282193 714.00308002666 603.52442282193 712.91508002666 C 602.34042282193 711.82708002666 600.21242282193 711.28308002666 597.14042282193 711.28308002666 L 589.84442282193 711.28308002666 C 576.14842282193 711.28308002666 569.30042282193 705.84308002666 569.30042282193 694.96308002666 L 569.30042282193 690.35508002666 C 569.30042282193 684.91508002666 571.57242282193 680.91508002666 576.11642282193 678.35508002666 C 580.66042282193 675.79508002666 587.86042282193 674.51508002666 597.71642282193 674.51508002666 C 602.83642282193 674.51508002666 609.33242282193 674.93108002666 617.20442282193 675.76308002666 L 617.20442282193 686.89908002666 C 607.54042282193 685.74708002666 600.88442282193 685.17108002666 597.23642282193 685.17108002666 C 592.18042282193 685.17108002666 588.78842282193 685.58708002666 587.06042282193 686.41908002666 C 585.20442282193 687.31508002666 584.27642282193 688.72308002666 584.27642282193 690.64308002666 L 584.27642282193 695.05908002666 C 584.27642282193 698.32308002666 587.02842282193 699.95508002666 592.53242282193 699.95508002666 L 600.02042282193 699.95508002666 C 607.12442282193 699.95508002666 612.27642282193 701.26708002666 615.47642282193 703.89108002666 C 618.67642282193 706.51508002666 620.27642282193 710.51508002666 620.27642282193 715.89108002666 L 620.27642282193 720.01908002666 C 620.27642282193 727.44308002666 617.62042282193 732.46708002666 612.30842282193 735.09108002666 C 609.74842282193 736.43508002666 606.91642282193 737.37908002666 603.81242282193 737.92308002666 C 600.70842282193 738.46708002666 596.98042282193 738.73908002666 592.62842282193 738.73908002666 C 586.67642282193 738.73908002666 579.31642282193 738.16308002666 570.54842282193 737.01108002666 Z M 672.74042282193 738.35508002666 C 670.53242282193 738.09908002666 668.11642282193 737.61908002666 665.49242282193 736.91508002666 C 662.54842282193 736.14708002666 660.11642282193 735.13908002666 658.19642282193 733.89108002666 C 656.27642282193 732.64308002666 654.67642282193 730.89908002666 653.39642282193 728.65908002666 C 652.05242282193 726.41908002666 651.38042282193 723.76308002666 651.38042282193 720.69108002666 L 651.38042282193 693.33108002666 C 651.38042282193 680.78708002666 661.01242282193 674.51508002666 680.27642282193 674.51508002666 C 685.20442282193 674.51508002666 691.79642282193 675.21908002666 700.05242282193 676.62708002666 L 700.05242282193 687.85908002666 C 692.62842282193 686.06708002666 686.10042282193 685.17108002666 680.46842282193 685.17108002666 C 678.10042282193 685.17108002666 676.26042282193 685.23508002666 674.94842282193 685.36308002666 C 673.63642282193 685.49108002666 672.27642282193 685.81108002666 670.86842282193 686.32308002666 C 667.86042282193 687.34708002666 666.35642282193 689.61908002666 666.35642282193 693.13908002666 L 666.35642282193 719.63508002666 C 666.35642282193 725.26708002666 671.50842282193 728.08308002666 681.81242282193 728.08308002666 C 686.22842282193 728.08308002666 692.43642282193 727.15508002666 700.43642282193 725.29908002666 L 700.43642282193 736.62708002666 C 693.58842282193 738.03508002666 686.86842282193 738.73908002666 680.27642282193 738.73908002666 C 677.46042282193 738.73908002666 674.94842282193 738.61108002666 672.74042282193 738.35508002666 Z M 709.84442282193 720.69108002666 L 709.84442282193 675.47508002666 L 724.82042282193 675.47508002666 L 724.82042282193 720.69108002666 C 724.82042282193 723.50708002666 725.73242282193 725.44308002666 727.55642282193 726.49908002666 C 729.38042282193 727.55508002666 732.53242282193 728.08308002666 737.01242282193 728.08308002666 C 741.42842282193 728.08308002666 744.51642282193 727.55508002666 746.27642282193 726.49908002666 C 748.03642282193 725.44308002666 748.91642282193 723.50708002666 748.91642282193 720.69108002666 L 748.91642282193 675.47508002666 L 763.89242282193 675.47508002666 L 763.89242282193 720.69108002666 C 763.89242282193 732.72308002666 754.86842282193 738.73908002666 736.82042282193 738.73908002666 C 718.83642282193 738.73908002666 709.84442282193 732.72308002666 709.84442282193 720.69108002666 Z M 777.14042282193 675.47508002666 L 805.17242282193 675.47508002666 C 813.49242282193 675.47508002666 819.50842282193 676.48308002666 823.22042282193 678.49908002666 C 826.93242282193 680.51508002666 828.78842282193 683.89108002666 828.78842282193 688.62708002666 L 828.78842282193 699.57108002666 C 828.78842282193 703.21908002666 827.49242282193 706.08308002666 824.90042282193 708.16308002666 C 822.30842282193 710.24308002666 818.86842282193 711.57108002666 814.58042282193 712.14708002666 L 832.62842282193 737.77908002666 L 815.34842282193 737.77908002666 L 799.02842282193 713.29908002666 L 792.11642282193 713.29908002666 L 792.11642282193 737.77908002666 L 777.14042282193 737.77908002666 L 777.14042282193 675.47508002666 Z M 804.98042282193 703.41108002666 C 808.50042282193 703.41108002666 810.90042282193 702.94708002666 812.18042282193 702.01908002666 C 813.46042282193 701.09108002666 814.10042282193 699.28308002666 814.10042282193 696.59508002666 L 814.10042282193 692.17908002666 C 814.10042282193 689.87508002666 813.41242282193 688.29108002666 812.03642282193 687.42708002666 C 810.66042282193 686.56308002666 808.30842282193 686.13108002666 804.98042282193 686.13108002666 L 792.11642282193 686.13108002666 L 792.11642282193 703.41108002666 L 804.98042282193 703.41108002666 Z M 839.34842282193 737.01108002666 L 839.34842282193 725.58708002666 C 850.22842282193 727.25108002666 857.65242282193 728.08308002666 861.62042282193 728.08308002666 C 869.94042282193 728.08308002666 874.10042282193 725.93908002666 874.10042282193 721.65108002666 L 874.10042282193 717.61908002666 C 874.10042282193 715.57108002666 873.50842282193 714.00308002666 872.32442282193 712.91508002666 C 871.14042282193 711.82708002666 869.01242282193 711.28308002666 865.94042282193 711.28308002666 L 858.64442282193 711.28308002666 C 844.94842282193 711.28308002666 838.10042282193 705.84308002666 838.10042282193 694.96308002666 L 838.10042282193 690.35508002666 C 838.10042282193 684.91508002666 840.37242282193 680.91508002666 844.91642282193 678.35508002666 C 849.46042282193 675.79508002666 856.66042282193 674.51508002666 866.51642282193 674.51508002666 C 871.63642282193 674.51508002666 878.13242282193 674.93108002666 886.00442282193 675.76308002666 L 886.00442282193 686.89908002666 C 876.34042282193 685.74708002666 869.68442282193 685.17108002666 866.03642282193 685.17108002666 C 860.98042282193 685.17108002666 857.58842282193 685.58708002666 855.86042282193 686.41908002666 C 854.00442282193 687.31508002666 853.07642282193 688.72308002666 853.07642282193 690.64308002666 L 853.07642282193 695.05908002666 C 853.07642282193 698.32308002666 855.82842282193 699.95508002666 861.33242282193 699.95508002666 L 868.82042282193 699.95508002666 C 875.92442282193 699.95508002666 881.07642282193 701.26708002666 884.27642282193 703.89108002666 C 887.47642282193 706.51508002666 889.07642282193 710.51508002666 889.07642282193 715.89108002666 L 889.07642282193 720.01908002666 C 889.07642282193 727.44308002666 886.42042282193 732.46708002666 881.10842282193 735.09108002666 C 878.54842282193 736.43508002666 875.71642282193 737.37908002666 872.61242282193 737.92308002666 C 869.50842282193 738.46708002666 865.78042282193 738.73908002666 861.42842282193 738.73908002666 C 855.47642282193 738.73908002666 848.11642282193 738.16308002666 839.34842282193 737.01108002666 Z M 918.02042282193 738.06708002666 C 915.10842282193 737.61908002666 912.08442282193 736.85108002666 908.94842282193 735.76308002666 C 905.55642282193 734.61108002666 902.90042282193 732.73908002666 900.98042282193 730.14708002666 C 899.06042282193 727.55508002666 898.10042282193 724.40308002666 898.10042282193 720.69108002666 L 898.10042282193 693.42708002666 C 898.10042282193 690.35508002666 898.78842282193 687.60308002666 900.16442282193 685.17108002666 C 901.54042282193 682.73908002666 903.31642282193 680.81908002666 905.49242282193 679.41108002666 C 907.41242282193 678.19508002666 909.78042282193 677.17108002666 912.59642282193 676.33908002666 C 915.41242282193 675.50708002666 918.03642282193 674.99508002666 920.46842282193 674.80308002666 C 922.70842282193 674.61108002666 925.07642282193 674.51508002666 927.57242282193 674.51508002666 C 930.51642282193 674.51508002666 933.07642282193 674.62708002666 935.25242282193 674.85108002666 C 937.42842282193 675.07508002666 939.86042282193 675.53908002666 942.54842282193 676.24308002666 C 945.62042282193 677.13908002666 948.14842282193 678.22708002666 950.13242282193 679.50708002666 C 952.11642282193 680.78708002666 953.78042282193 682.57908002666 955.12442282193 684.88308002666 C 956.53242282193 687.25108002666 957.23642282193 690.09908002666 957.23642282193 693.42708002666 L 957.23642282193 720.69108002666 C 957.23642282193 724.14708002666 956.32442282193 727.12308002666 954.50042282193 729.61908002666 C 952.67642282193 732.11508002666 950.16442282193 734.00308002666 946.96442282193 735.28308002666 C 941.20442282193 737.58708002666 934.74042282193 738.73908002666 927.57242282193 738.73908002666 C 924.11642282193 738.73908002666 920.93242282193 738.51508002666 918.02042282193 738.06708002666 Z M 933.09242282193 727.84308002666 C 934.53242282193 727.68308002666 936.02042282193 727.37908002666 937.55642282193 726.93108002666 C 939.09242282193 726.48308002666 940.26042282193 725.73108002666 941.06042282193 724.67508002666 C 941.86042282193 723.61908002666 942.26042282193 722.29108002666 942.26042282193 720.69108002666 L 942.26042282193 693.33108002666 C 942.26042282193 690.38708002666 941.07642282193 688.29108002666 938.70842282193 687.04308002666 C 936.34042282193 685.79508002666 932.66042282193 685.17108002666 927.66842282193 685.17108002666 C 922.67642282193 685.17108002666 918.99642282193 685.77908002666 916.62842282193 686.99508002666 C 914.26042282193 688.21108002666 913.07642282193 690.32308002666 913.07642282193 693.33108002666 L 913.07642282193 720.69108002666 C 913.07642282193 722.29108002666 913.49242282193 723.61908002666 914.32442282193 724.67508002666 C 915.15642282193 725.73108002666 916.37242282193 726.48308002666 917.97242282193 726.93108002666 C 919.50842282193 727.37908002666 920.99642282193 727.68308002666 922.43642282193 727.84308002666 C 923.87642282193 728.00308002666 925.65242282193 728.08308002666 927.76442282193 728.08308002666 C 929.87642282193 728.08308002666 931.65242282193 728.00308002666 933.09242282193 727.84308002666 Z M 967.41242282193 737.01108002666 L 967.41242282193 725.58708002666 C 978.29242282193 727.25108002666 985.71642282193 728.08308002666 989.68442282193 728.08308002666 C 998.00442282193 728.08308002666 1002.16442282193 725.93908002666 1002.16442282193 721.65108002666 L 1002.16442282193 717.61908002666 C 1002.16442282193 715.57108002666 1001.57242282193 714.00308002666 1000.38842282193 712.91508002666 C 999.20442282193 711.82708002666 997.07642282193 711.28308002666 994.00442282193 711.28308002666 L 986.70842282193 711.28308002666 C 973.01242282193 711.28308002666 966.16442282193 705.84308002666 966.16442282193 694.96308002666 L 966.16442282193 690.35508002666 C 966.16442282193 684.91508002666 968.43642282193 680.91508002666 972.98042282193 678.35508002666 C 977.52442282193 675.79508002666 984.72442282193 674.51508002666 994.58042282193 674.51508002666 C 999.70042282193 674.51508002666 1006.19642282193 674.93108002666 1014.06842282193 675.76308002666 L 1014.06842282193 686.89908002666 C 1004.40442282193 685.74708002666 997.74842282193 685.17108002666 994.10042282193 685.17108002666 C 989.04442282193 685.17108002666 985.65242282193 685.58708002666 983.92442282193 686.41908002666 C 982.06842282193 687.31508002666 981.14042282193 688.72308002666 981.14042282193 690.64308002666 L 981.14042282193 695.05908002666 C 981.14042282193 698.32308002666 983.89242282193 699.95508002666 989.39642282193 699.95508002666 L 996.88442282193 699.95508002666 C 1003.98842282193 699.95508002666 1009.14042282193 701.26708002666 1012.34042282193 703.89108002666 C 1015.54042282193 706.51508002666 1017.14042282193 710.51508002666 1017.14042282193 715.89108002666 L 1017.14042282193 720.01908002666 C 1017.14042282193 727.44308002666 1014.48442282193 732.46708002666 1009.17242282193 735.09108002666 C 1006.61242282193 736.43508002666 1003.78042282193 737.37908002666 1000.67642282193 737.92308002666 C 997.57242282193 738.46708002666 993.84442282193 738.73908002666 989.49242282193 738.73908002666 C 983.54042282193 738.73908002666 976.18042282193 738.16308002666 967.41242282193 737.01108002666 Z"/><path id="text" fill="#b7b4b4" transform="matrix(0.31359474508894525 0 0 0.31359474508894525 212.90315944579103 90.00680726832066)" d="M 471.40084564385 1413.25416005333 L 513.25684564385 1413.25416005333 L 513.25684564385 1419.78216005333 L 480.71284564385 1419.78216005333 L 480.71284564385 1440.13416005333 L 510.08884564385 1440.13416005333 L 510.08884564385 1446.66216005333 L 480.71284564385 1446.66216005333 L 480.71284564385 1469.03016005333 L 514.21684564385 1469.03016005333 L 514.21684564385 1475.55816005333 L 471.40084564385 1475.55816005333 L 471.40084564385 1413.25416005333 Z M 531.88084564385 1413.25416005333 L 556.64884564385 1413.25416005333 C 574.12084564385 1413.25416005333 582.85684564385 1419.20616005333 582.85684564385 1431.11016005333 L 582.85684564385 1458.66216005333 C 582.85684564385 1469.92616005333 574.15284564385 1475.55816005333 556.74484564385 1475.55816005333 L 531.88084564385 1475.55816005333 L 531.88084564385 1413.25416005333 Z M 556.07284564385 1469.22216005333 C 567.97684564385 1469.22216005333 573.92884564385 1465.63816005333 573.92884564385 1458.47016005333 L 573.92884564385 1431.01416005333 C 573.92884564385 1428.71016005333 573.44884564385 1426.75816005333 572.48884564385 1425.15816005333 C 571.52884564385 1423.55816005333 570.18484564385 1422.37416005333 568.45684564385 1421.60616005333 C 566.72884564385 1420.90216005333 564.93684564385 1420.40616005333 563.08084564385 1420.11816005333 C 561.22484564385 1419.83016005333 559.04884564385 1419.68616005333 556.55284564385 1419.68616005333 L 541.19284564385 1419.68616005333 L 541.19284564385 1469.22216005333 L 556.07284564385 1469.22216005333 Z M 617.27284564385 1475.84616005333 C 614.74484564385 1475.39816005333 612.26484564385 1474.63016005333 609.83284564385 1473.54216005333 C 607.27284564385 1472.39016005333 605.30484564385 1470.63016005333 603.92884564385 1468.26216005333 C 602.55284564385 1465.89416005333 601.86484564385 1463.01416005333 601.86484564385 1459.62216005333 L 601.86484564385 1413.25416005333 L 610.79284564385 1413.25416005333 L 610.79284564385 1459.52616005333 C 610.79284564385 1463.43016005333 612.10484564385 1466.19816005333 614.72884564385 1467.83016005333 C 617.35284564385 1469.46216005333 621.22484564385 1470.27816005333 626.34484564385 1470.27816005333 C 631.46484564385 1470.27816005333 635.28884564385 1469.46216005333 637.81684564385 1467.83016005333 C 640.34484564385 1466.19816005333 641.60884564385 1463.43016005333 641.60884564385 1459.52616005333 L 641.60884564385 1413.25416005333 L 650.53684564385 1413.25416005333 L 650.53684564385 1459.62216005333 C 650.53684564385 1470.88616005333 642.40884564385 1476.51816005333 626.15284564385 1476.51816005333 C 622.76084564385 1476.51816005333 619.80084564385 1476.29416005333 617.27284564385 1475.84616005333 Z M 669.64084564385 1459.62216005333 L 669.64084564385 1430.05416005333 C 669.64084564385 1418.15016005333 678.37684564385 1412.19816005333 695.84884564385 1412.19816005333 C 701.80084564385 1412.19816005333 707.49684564385 1412.80616005333 712.93684564385 1414.02216005333 L 712.93684564385 1420.93416005333 C 706.79284564385 1419.39816005333 701.16084564385 1418.63016005333 696.04084564385 1418.63016005333 C 693.54484564385 1418.63016005333 691.36884564385 1418.77416005333 689.51284564385 1419.06216005333 C 687.65684564385 1419.35016005333 685.86484564385 1419.84616005333 684.13684564385 1420.55016005333 C 680.42484564385 1422.15016005333 678.56884564385 1425.28616005333 678.56884564385 1429.95816005333 L 678.56884564385 1459.14216005333 C 678.56884564385 1466.31016005333 684.52084564385 1469.89416005333 696.42484564385 1469.89416005333 C 701.54484564385 1469.89416005333 707.17684564385 1469.12616005333 713.32084564385 1467.59016005333 L 713.32084564385 1474.69416005333 C 707.88084564385 1475.91016005333 702.05684564385 1476.51816005333 695.84884564385 1476.51816005333 C 678.37684564385 1476.51816005333 669.64084564385 1470.88616005333 669.64084564385 1459.62216005333 Z M 748.64884564385 1413.25416005333 L 759.40084564385 1413.25416005333 L 783.59284564385 1475.55816005333 L 773.89684564385 1475.55816005333 L 766.79284564385 1456.64616005333 L 740.10484564385 1456.64616005333 L 733.09684564385 1475.55816005333 L 723.88084564385 1475.55816005333 L 748.64884564385 1413.25416005333 Z M 764.48884564385 1450.21416005333 L 753.92884564385 1422.08616005333 L 753.06484564385 1422.08616005333 L 742.50484564385 1450.21416005333 L 764.48884564385 1450.21416005333 Z M 795.97684564385 1459.62216005333 L 795.97684564385 1430.05416005333 C 795.97684564385 1418.15016005333 804.71284564385 1412.19816005333 822.18484564385 1412.19816005333 C 828.13684564385 1412.19816005333 833.83284564385 1412.80616005333 839.27284564385 1414.02216005333 L 839.27284564385 1420.93416005333 C 833.12884564385 1419.39816005333 827.49684564385 1418.63016005333 822.37684564385 1418.63016005333 C 819.88084564385 1418.63016005333 817.70484564385 1418.77416005333 815.84884564385 1419.06216005333 C 813.99284564385 1419.35016005333 812.20084564385 1419.84616005333 810.47284564385 1420.55016005333 C 806.76084564385 1422.15016005333 804.90484564385 1425.28616005333 804.90484564385 1429.95816005333 L 804.90484564385 1459.14216005333 C 804.90484564385 1466.31016005333 810.85684564385 1469.89416005333 822.76084564385 1469.89416005333 C 827.88084564385 1469.89416005333 833.51284564385 1469.12616005333 839.65684564385 1467.59016005333 L 839.65684564385 1474.69416005333 C 834.21684564385 1475.91016005333 828.39284564385 1476.51816005333 822.18484564385 1476.51816005333 C 804.71284564385 1476.51816005333 795.97684564385 1470.88616005333 795.97684564385 1459.62216005333 Z M 856.84084564385 1413.25416005333 L 866.15284564385 1413.25416005333 L 866.15284564385 1475.55816005333 L 856.84084564385 1475.55816005333 L 856.84084564385 1413.25416005333 Z M 885.35284564385 1459.62216005333 L 885.35284564385 1430.15016005333 C 885.35284564385 1418.24616005333 894.05684564385 1412.29416005333 911.46484564385 1412.29416005333 C 929.06484564385 1412.29416005333 937.86484564385 1418.21416005333 937.86484564385 1430.05416005333 L 937.86484564385 1459.62216005333 C 937.86484564385 1465.63816005333 935.43284564385 1469.95816005333 930.56884564385 1472.58216005333 C 925.70484564385 1475.20616005333 919.33684564385 1476.51816005333 911.46484564385 1476.51816005333 C 894.05684564385 1476.51816005333 885.35284564385 1470.88616005333 885.35284564385 1459.62216005333 Z M 928.84084564385 1459.52616005333 L 928.84084564385 1429.86216005333 C 928.84084564385 1422.18216005333 923.08084564385 1418.34216005333 911.56084564385 1418.34216005333 C 905.99284564385 1418.34216005333 901.72084564385 1419.20616005333 898.74484564385 1420.93416005333 C 895.76884564385 1422.66216005333 894.28084564385 1425.63816005333 894.28084564385 1429.86216005333 L 894.28084564385 1459.52616005333 C 894.28084564385 1466.69416005333 900.07284564385 1470.27816005333 911.65684564385 1470.27816005333 C 923.11284564385 1470.27816005333 928.84084564385 1466.69416005333 928.84084564385 1459.52616005333 Z M 915.49684564385 1394.72616005333 L 925.96084564385 1394.72616005333 L 913.96084564385 1406.91816005333 L 906.85684564385 1406.91816005333 L 915.49684564385 1394.72616005333 Z M 957.06484564385 1413.25416005333 L 968.29684564385 1413.25416005333 L 1002.18484564385 1464.71016005333 L 1002.18484564385 1413.25416005333 L 1010.34484564385 1413.25416005333 L 1010.34484564385 1475.55816005333 L 999.11284564385 1475.55816005333 L 965.22484564385 1423.23816005333 L 965.22484564385 1475.55816005333 L 957.06484564385 1475.55816005333 L 957.06484564385 1413.25416005333 Z M 1055.84884564385 1465.47816005333 L 1055.84884564385 1455.01416005333 C 1055.84884564385 1450.15016005333 1058.79284564385 1446.40616005333 1064.68084564385 1443.78216005333 L 1069.19284564385 1441.67016005333 L 1065.44884564385 1437.25416005333 C 1063.46484564385 1435.01416005333 1062.47284564385 1432.80616005333 1062.47284564385 1430.63016005333 L 1062.47284564385 1421.31816005333 C 1062.47284564385 1415.23816005333 1067.78484564385 1412.19816005333 1078.40884564385 1412.19816005333 C 1082.69684564385 1412.19816005333 1087.04884564385 1412.67816005333 1091.46484564385 1413.63816005333 L 1091.46484564385 1420.64616005333 C 1086.72884564385 1419.04616005333 1082.31284564385 1418.24616005333 1078.21684564385 1418.24616005333 C 1075.46484564385 1418.24616005333 1073.51284564385 1418.53416005333 1072.36084564385 1419.11016005333 C 1071.20884564385 1419.68616005333 1070.63284564385 1420.67816005333 1070.63284564385 1422.08616005333 L 1070.63284564385 1429.19016005333 C 1070.63284564385 1430.21416005333 1070.95284564385 1431.07816005333 1071.59284564385 1431.78216005333 L 1094.82484564385 1459.91016005333 C 1095.01684564385 1458.75816005333 1095.11284564385 1457.41416005333 1095.11284564385 1455.87816005333 L 1095.11284564385 1446.66216005333 L 1102.40884564385 1446.66216005333 L 1102.40884564385 1455.49416005333 C 1102.40884564385 1459.84616005333 1101.73684564385 1463.43016005333 1100.39284564385 1466.24616005333 C 1103.01684564385 1468.67816005333 1104.93684564385 1469.89416005333 1106.15284564385 1469.89416005333 L 1108.64884564385 1469.89416005333 L 1108.64884564385 1475.55816005333 L 1102.50484564385 1475.55816005333 C 1100.26484564385 1475.55816005333 1097.92884564385 1474.47016005333 1095.49684564385 1472.29416005333 C 1091.40084564385 1475.11016005333 1085.16084564385 1476.51816005333 1076.77684564385 1476.51816005333 C 1062.82484564385 1476.51816005333 1055.84884564385 1472.83816005333 1055.84884564385 1465.47816005333 Z M 1078.50484564385 1470.56616005333 C 1084.77684564385 1470.56616005333 1089.00084564385 1469.67016005333 1091.17684564385 1467.87816005333 L 1072.64884564385 1445.79816005333 L 1069.28884564385 1447.23816005333 C 1067.94484564385 1447.87816005333 1066.87284564385 1448.83816005333 1066.07284564385 1450.11816005333 C 1065.27284564385 1451.39816005333 1064.87284564385 1452.74216005333 1064.87284564385 1454.15016005333 L 1064.87284564385 1465.86216005333 C 1064.87284564385 1468.99816005333 1069.06484564385 1470.56616005333 1077.44884564385 1470.56616005333 L 1078.50484564385 1470.56616005333 Z M 1148.96884564385 1459.62216005333 L 1148.96884564385 1430.05416005333 C 1148.96884564385 1418.15016005333 1157.70484564385 1412.19816005333 1175.17684564385 1412.19816005333 C 1181.12884564385 1412.19816005333 1186.82484564385 1412.80616005333 1192.26484564385 1414.02216005333 L 1192.26484564385 1420.93416005333 C 1186.12084564385 1419.39816005333 1180.48884564385 1418.63016005333 1175.36884564385 1418.63016005333 C 1172.87284564385 1418.63016005333 1170.69684564385 1418.77416005333 1168.84084564385 1419.06216005333 C 1166.98484564385 1419.35016005333 1165.19284564385 1419.84616005333 1163.46484564385 1420.55016005333 C 1159.75284564385 1422.15016005333 1157.89684564385 1425.28616005333 1157.89684564385 1429.95816005333 L 1157.89684564385 1459.14216005333 C 1157.89684564385 1466.31016005333 1163.84884564385 1469.89416005333 1175.75284564385 1469.89416005333 C 1180.87284564385 1469.89416005333 1186.50484564385 1469.12616005333 1192.64884564385 1467.59016005333 L 1192.64884564385 1474.69416005333 C 1187.20884564385 1475.91016005333 1181.38484564385 1476.51816005333 1175.17684564385 1476.51816005333 C 1157.70484564385 1476.51816005333 1148.96884564385 1470.88616005333 1148.96884564385 1459.62216005333 Z M 1225.24084564385 1475.84616005333 C 1222.71284564385 1475.39816005333 1220.23284564385 1474.63016005333 1217.80084564385 1473.54216005333 C 1215.24084564385 1472.39016005333 1213.27284564385 1470.63016005333 1211.89684564385 1468.26216005333 C 1210.52084564385 1465.89416005333 1209.83284564385 1463.01416005333 1209.83284564385 1459.62216005333 L 1209.83284564385 1413.25416005333 L 1218.76084564385 1413.25416005333 L 1218.76084564385 1459.52616005333 C 1218.76084564385 1463.43016005333 1220.07284564385 1466.19816005333 1222.69684564385 1467.83016005333 C 1225.32084564385 1469.46216005333 1229.19284564385 1470.27816005333 1234.31284564385 1470.27816005333 C 1239.43284564385 1470.27816005333 1243.25684564385 1469.46216005333 1245.78484564385 1467.83016005333 C 1248.31284564385 1466.19816005333 1249.57684564385 1463.43016005333 1249.57684564385 1459.52616005333 L 1249.57684564385 1413.25416005333 L 1258.50484564385 1413.25416005333 L 1258.50484564385 1459.62216005333 C 1258.50484564385 1470.88616005333 1250.37684564385 1476.51816005333 1234.12084564385 1476.51816005333 C 1230.72884564385 1476.51816005333 1227.76884564385 1476.29416005333 1225.24084564385 1475.84616005333 Z M 1279.52884564385 1413.25416005333 L 1301.41684564385 1413.25416005333 C 1306.92084564385 1413.25416005333 1311.22484564385 1413.59016005333 1314.32884564385 1414.26216005333 C 1317.43284564385 1414.93416005333 1319.70484564385 1416.13416005333 1321.14484564385 1417.86216005333 C 1322.58484564385 1419.59016005333 1323.30484564385 1422.11816005333 1323.30484564385 1425.44616005333 L 1323.30484564385 1436.19816005333 C 1323.30484564385 1439.91016005333 1321.78484564385 1442.77416005333 1318.74484564385 1444.79016005333 C 1315.70484564385 1446.80616005333 1311.84884564385 1447.81416005333 1307.17684564385 1447.81416005333 L 1327.14484564385 1475.55816005333 L 1315.72084564385 1475.55816005333 L 1297.86484564385 1448.96616005333 L 1288.84084564385 1448.96616005333 L 1288.84084564385 1475.55816005333 L 1279.52884564385 1475.55816005333 L 1279.52884564385 1413.25416005333 Z M 1301.03284564385 1442.82216005333 C 1305.64084564385 1442.82216005333 1308.95284564385 1442.26216005333 1310.96884564385 1441.14216005333 C 1312.98484564385 1440.02216005333 1313.99284564385 1437.99016005333 1313.99284564385 1435.04616005333 L 1313.99284564385 1426.40616005333 C 1313.99284564385 1421.73416005333 1309.96084564385 1419.39816005333 1301.89684564385 1419.39816005333 L 1288.84084564385 1419.39816005333 L 1288.84084564385 1442.82216005333 L 1301.03284564385 1442.82216005333 Z M 1343.94484564385 1474.98216005333 L 1343.94484564385 1467.20616005333 C 1351.36884564385 1468.80616005333 1357.89684564385 1469.60616005333 1363.52884564385 1469.60616005333 C 1368.26484564385 1469.60616005333 1371.72084564385 1469.07816005333 1373.89684564385 1468.02216005333 C 1376.07284564385 1466.96616005333 1377.16084564385 1464.99816005333 1377.16084564385 1462.11816005333 L 1377.16084564385 1454.05416005333 C 1377.16084564385 1451.36616005333 1376.39284564385 1449.47816005333 1374.85684564385 1448.39016005333 C 1373.32084564385 1447.30216005333 1370.63284564385 1446.75816005333 1366.79284564385 1446.75816005333 L 1359.49684564385 1446.75816005333 C 1353.41684564385 1446.75816005333 1349.09684564385 1445.54216005333 1346.53684564385 1443.11016005333 C 1343.97684564385 1440.67816005333 1342.69684564385 1436.90216005333 1342.69684564385 1431.78216005333 L 1342.69684564385 1426.79016005333 C 1342.69684564385 1423.39816005333 1343.44884564385 1420.64616005333 1344.95284564385 1418.53416005333 C 1346.45684564385 1416.42216005333 1348.98484564385 1414.85416005333 1352.53684564385 1413.83016005333 C 1356.08884564385 1412.80616005333 1360.96884564385 1412.29416005333 1367.17684564385 1412.29416005333 C 1371.33684564385 1412.29416005333 1376.68084564385 1412.64616005333 1383.20884564385 1413.35016005333 L 1383.20884564385 1420.35816005333 C 1375.91284564385 1419.27016005333 1370.34484564385 1418.72616005333 1366.50484564385 1418.72616005333 C 1360.55284564385 1418.72616005333 1356.61684564385 1419.30216005333 1354.69684564385 1420.45416005333 C 1352.71284564385 1421.67016005333 1351.72084564385 1423.68616005333 1351.72084564385 1426.50216005333 L 1351.72084564385 1433.60616005333 C 1351.72084564385 1435.78216005333 1352.50484564385 1437.36616005333 1354.07284564385 1438.35816005333 C 1355.64084564385 1439.35016005333 1358.34484564385 1439.84616005333 1362.18484564385 1439.84616005333 L 1369.67284564385 1439.84616005333 C 1373.96084564385 1439.84616005333 1377.30484564385 1440.35816005333 1379.70484564385 1441.38216005333 C 1382.10484564385 1442.40616005333 1383.80084564385 1443.95816005333 1384.79284564385 1446.03816005333 C 1385.78484564385 1448.11816005333 1386.28084564385 1450.91816005333 1386.28084564385 1454.43816005333 L 1386.28084564385 1458.95016005333 C 1386.28084564385 1463.36616005333 1385.46484564385 1466.85416005333 1383.83284564385 1469.41416005333 C 1382.20084564385 1471.97416005333 1379.68884564385 1473.79816005333 1376.29684564385 1474.88616005333 C 1372.90484564385 1475.97416005333 1368.45684564385 1476.51816005333 1362.95284564385 1476.51816005333 C 1357.64084564385 1476.51816005333 1351.30484564385 1476.00616005333 1343.94484564385 1474.98216005333 Z M 1402.69684564385 1459.62216005333 L 1402.69684564385 1430.15016005333 C 1402.69684564385 1418.24616005333 1411.40084564385 1412.29416005333 1428.80884564385 1412.29416005333 C 1446.40884564385 1412.29416005333 1455.20884564385 1418.21416005333 1455.20884564385 1430.05416005333 L 1455.20884564385 1459.62216005333 C 1455.20884564385 1465.63816005333 1452.77684564385 1469.95816005333 1447.91284564385 1472.58216005333 C 1443.04884564385 1475.20616005333 1436.68084564385 1476.51816005333 1428.80884564385 1476.51816005333 C 1411.40084564385 1476.51816005333 1402.69684564385 1470.88616005333 1402.69684564385 1459.62216005333 Z M 1446.18484564385 1459.52616005333 L 1446.18484564385 1429.86216005333 C 1446.18484564385 1422.18216005333 1440.42484564385 1418.34216005333 1428.90484564385 1418.34216005333 C 1423.33684564385 1418.34216005333 1419.06484564385 1419.20616005333 1416.08884564385 1420.93416005333 C 1413.11284564385 1422.66216005333 1411.62484564385 1425.63816005333 1411.62484564385 1429.86216005333 L 1411.62484564385 1459.52616005333 C 1411.62484564385 1466.69416005333 1417.41684564385 1470.27816005333 1429.00084564385 1470.27816005333 C 1440.45684564385 1470.27816005333 1446.18484564385 1466.69416005333 1446.18484564385 1459.52616005333 Z M 1473.35284564385 1474.98216005333 L 1473.35284564385 1467.20616005333 C 1480.77684564385 1468.80616005333 1487.30484564385 1469.60616005333 1492.93684564385 1469.60616005333 C 1497.67284564385 1469.60616005333 1501.12884564385 1469.07816005333 1503.30484564385 1468.02216005333 C 1505.48084564385 1466.96616005333 1506.56884564385 1464.99816005333 1506.56884564385 1462.11816005333 L 1506.56884564385 1454.05416005333 C 1506.56884564385 1451.36616005333 1505.80084564385 1449.47816005333 1504.26484564385 1448.39016005333 C 1502.72884564385 1447.30216005333 1500.04084564385 1446.75816005333 1496.20084564385 1446.75816005333 L 1488.90484564385 1446.75816005333 C 1482.82484564385 1446.75816005333 1478.50484564385 1445.54216005333 1475.94484564385 1443.11016005333 C 1473.38484564385 1440.67816005333 1472.10484564385 1436.90216005333 1472.10484564385 1431.78216005333 L 1472.10484564385 1426.79016005333 C 1472.10484564385 1423.39816005333 1472.85684564385 1420.64616005333 1474.36084564385 1418.53416005333 C 1475.86484564385 1416.42216005333 1478.39284564385 1414.85416005333 1481.94484564385 1413.83016005333 C 1485.49684564385 1412.80616005333 1490.37684564385 1412.29416005333 1496.58484564385 1412.29416005333 C 1500.74484564385 1412.29416005333 1506.08884564385 1412.64616005333 1512.61684564385 1413.35016005333 L 1512.61684564385 1420.35816005333 C 1505.32084564385 1419.27016005333 1499.75284564385 1418.72616005333 1495.91284564385 1418.72616005333 C 1489.96084564385 1418.72616005333 1486.02484564385 1419.30216005333 1484.10484564385 1420.45416005333 C 1482.12084564385 1421.67016005333 1481.12884564385 1423.68616005333 1481.12884564385 1426.50216005333 L 1481.12884564385 1433.60616005333 C 1481.12884564385 1435.78216005333 1481.91284564385 1437.36616005333 1483.48084564385 1438.35816005333 C 1485.04884564385 1439.35016005333 1487.75284564385 1439.84616005333 1491.59284564385 1439.84616005333 L 1499.08084564385 1439.84616005333 C 1503.36884564385 1439.84616005333 1506.71284564385 1440.35816005333 1509.11284564385 1441.38216005333 C 1511.51284564385 1442.40616005333 1513.20884564385 1443.95816005333 1514.20084564385 1446.03816005333 C 1515.19284564385 1448.11816005333 1515.68884564385 1450.91816005333 1515.68884564385 1454.43816005333 L 1515.68884564385 1458.95016005333 C 1515.68884564385 1463.36616005333 1514.87284564385 1466.85416005333 1513.24084564385 1469.41416005333 C 1511.60884564385 1471.97416005333 1509.09684564385 1473.79816005333 1505.70484564385 1474.88616005333 C 1502.31284564385 1475.97416005333 1497.86484564385 1476.51816005333 1492.36084564385 1476.51816005333 C 1487.04884564385 1476.51816005333 1480.71284564385 1476.00616005333 1473.35284564385 1474.98216005333 Z"/></svg>